<?xml version="1.0" encoding="UTF-8" standalone="no"?><!DOCTYPE svg PUBLIC "-//W3C//DTD SVG 1.1//EN" "http://www.w3.org/Graphics/SVG/1.1/DTD/svg11.dtd"><svg width="100%" height="100%" viewBox="0 0 213 24" version="1.1" xmlns="http://www.w3.org/2000/svg" xmlns:xlink="http://www.w3.org/1999/xlink" xml:space="preserve" style="fill-rule:evenodd;clip-rule:evenodd;stroke-linejoin:round;stroke-miterlimit:1.41421;"><rect id="Artboard1" x="0" y="0" width="212.059" height="23.583" style="fill:none;"/><clipPath id="_clip1"><rect id="Artboard11" x="0" y="0" width="212.059" height="23.583"/></clipPath><g clip-path="url(#_clip1)"><g><path d="M10.719,23.583l-10.719,0l0,-23.583l10.786,0c9.748,0 15.261,3.536 15.261,11.271c0,8.497 -5.376,12.312 -15.328,12.312m0,-19.526l-4.129,0l0,15.469l4.162,0c5.618,0 8.533,-2.533 8.533,-8.255c0,-4.994 -2.88,-7.214 -8.566,-7.214" style="fill:#fff;fill-rule:nonzero;"/><path d="M41.477,23.999c-9.017,0 -13.005,-2.982 -13.005,-9.746c0,-6.518 5.653,-8.843 13.005,-8.843c7.871,0 13.039,2.325 13.039,8.843c0,6.936 -4.578,9.746 -13.039,9.746m0,-14.878c-4.265,0 -6.485,1.629 -6.485,5.132c0,4.232 2.184,6.069 6.485,6.069c4.301,0 6.485,-1.837 6.485,-6.069c0,-3.641 -2.356,-5.132 -6.485,-5.132" style="fill:#fff;fill-rule:nonzero;"/><path d="M89.612,23.583l0,-10.231c0,-2.705 -1.316,-4.162 -4.819,-4.162c-2.636,0 -4.614,0.695 -5.379,0.901c0.21,0.21 0.559,1.075 0.559,1.526l0,11.966l-6.348,0l0,-10.231c0,-2.53 -1.214,-4.162 -4.751,-4.162c-2.637,0 -4.683,0.798 -5.101,0.936l0,13.457l-6.379,0l0,-16.369c0.936,-0.313 5.861,-1.804 11.168,-1.804c5.027,0 7.629,1.178 8.183,1.596c0.937,-0.383 4.37,-1.596 9.121,-1.596c7.388,0 10.095,2.912 10.095,5.894l0,12.279l-6.349,0Z" style="fill:#fff;fill-rule:nonzero;"/><path d="M135.178,23.93c-4.335,0 -7.422,-1.421 -7.422,-5.237l0,-17.027l6.347,0l0,4.16l6.243,0l0,3.711l-6.243,0l0,8.394c0,1.526 1.247,2.322 3.467,2.322c0.693,0 2.671,-0.31 3.4,-0.449l0,3.744c-0.937,0.139 -4.024,0.382 -5.792,0.382" style="fill:#fff;fill-rule:nonzero;"/><path d="M156.436,9.051c-2.672,0 -5.759,0.729 -6.626,0.901l0,13.631l-6.38,0l0,-16.544c0.624,-0.208 6.521,-1.629 11.027,-1.629c0.868,0 3.852,0.138 4.232,0.241l0,3.644c-0.344,-0.105 -1.458,-0.139 -2.253,-0.244" style="fill:#fff;fill-rule:nonzero;"/><path d="M172.804,23.999c-9.018,0 -13.006,-2.982 -13.006,-9.746c0,-6.518 5.654,-8.843 13.006,-8.843c7.871,0 13.039,2.325 13.039,8.843c0,6.936 -4.578,9.746 -13.039,9.746m0,-14.878c-4.265,0 -6.485,1.629 -6.485,5.132c0,4.232 2.184,6.069 6.485,6.069c4.301,0 6.485,-1.837 6.485,-6.069c0,-3.641 -2.359,-5.132 -6.485,-5.132" style="fill:#fff;fill-rule:nonzero;"/><path d="M205.68,23.583l0,-10.231c0,-2.636 -1.353,-4.162 -5.03,-4.162c-2.497,0 -4.889,0.659 -5.548,0.936l0,13.457l-6.382,0l0,-16.369c1.352,-0.452 6.693,-1.804 12.138,-1.804c7.319,0 11.201,2.047 11.201,5.894l0,12.279l-6.379,0Z" style="fill:#fff;fill-rule:nonzero;"/><rect x="109.202" y="1.665" width="5.276" height="13.039" style="fill:#fff;fill-rule:nonzero;"/><path d="M115.917,5.661l0,4.231c1.558,0.783 2.408,2.184 2.408,4.362c0,4.231 -2.184,6.069 -6.485,6.069c-4.301,0 -6.487,-1.838 -6.487,-6.069c0,-2.122 0.822,-3.552 2.412,-4.355l0,-4.209c-5.267,0.787 -8.933,3.315 -8.933,8.564c0,6.762 3.99,9.746 13.008,9.746c8.461,0 13.041,-2.81 13.041,-9.746c0,-5.314 -3.433,-7.84 -8.964,-8.593l0,0Z" style="fill:#fff;fill-rule:nonzero;"/></g></g></svg>