<?xml version="1.0" encoding="UTF-8" standalone="no"?>
<!DOCTYPE svg PUBLIC "-//W3C//DTD SVG 1.1//EN" "http://www.w3.org/Graphics/SVG/1.1/DTD/svg11.dtd">
<svg width="100%" height="100%" viewBox="0 0 480 320" version="1.1" xmlns="http://www.w3.org/2000/svg" xmlns:xlink="http://www.w3.org/1999/xlink" xml:space="preserve" style="fill-rule:evenodd;clip-rule:evenodd;stroke-linecap:round;stroke-linejoin:round;stroke-miterlimit:1.5;">
    <g id="Artboard1" transform="matrix(1,0,0,0.880353,0,0)">
        <rect x="0" y="0" width="480" height="363.491" style="fill:none;"/>
        <g id="Layer2" transform="matrix(1,0,0,1.13591,0,0)">
            <path d="M243.907,160L243.907,61.271L334.378,61.271L334.378,3.056" style="fill:none;stroke:white;stroke-opacity:0.5;stroke-width:2px;"/>
            <path d="M225.084,160L225.084,45.788L270.016,45.788L270.016,3.056" style="fill:none;stroke:white;stroke-opacity:0.5;stroke-width:2px;"/>
            <path d="M207.475,160L207.475,27.572L166.49,27.572L166.49,3.056" style="fill:none;stroke:white;stroke-opacity:0.5;stroke-width:2px;"/>
            <g transform="matrix(1,0,0,1,-10.0186,0)">
                <path d="M362.005,160L362.005,3.056" style="fill:none;stroke:url(#_Linear1);stroke-width:2px;"/>
            </g>
            <g transform="matrix(1,0,0,1,8.80425,0)">
                <path d="M140.077,160L140.077,59.733L112.419,59.733L112.419,3.056" style="fill:none;stroke:white;stroke-opacity:0.5;stroke-width:2px;"/>
            </g>
            <path d="M307.941,160L307.941,260.946L351.986,260.946L351.986,316.783" style="fill:none;stroke:white;stroke-opacity:0.5;stroke-width:2px;"/>
            <path d="M287.624,160L287.624,282.577L329.964,282.577L329.964,316.783" style="fill:none;stroke:white;stroke-opacity:0.5;stroke-width:2px;"/>
            <path d="M260.125,160L260.125,260.567L225.084,260.567L225.084,316.783" style="fill:none;stroke:white;stroke-opacity:0.5;stroke-width:2px;"/>
            <path d="M181.95,160L181.95,316.783" style="fill:none;stroke:white;stroke-opacity:0.5;stroke-width:2px;"/>
            <path d="M164.493,160L164.493,281.059L108.328,281.059L108.328,316.783" style="fill:none;stroke:white;stroke-opacity:0.5;stroke-width:2px;"/>
            <path d="M122.749,160L70.758,160L70.758,126.226L3.731,126.226" style="fill:none;stroke:white;stroke-opacity:0.5;stroke-width:2px;"/>
            <path d="M121.99,200.227L86.317,200.227L86.317,235.52L3.731,235.52" style="fill:none;stroke:white;stroke-opacity:0.5;stroke-width:2px;"/>
            <path d="M121.61,178.217L44.573,178.217L44.573,208.956L3.731,208.956" style="fill:none;stroke:white;stroke-opacity:0.5;stroke-width:2px;"/>
            <path d="M113.261,95.867L71.946,95.867L71.946,41.978L3.731,41.978" style="fill:none;stroke:white;stroke-opacity:0.5;stroke-width:2px;"/>
            <path d="M371.317,227.551L427.482,227.551L427.482,275.746L477.016,275.746" style="fill:none;stroke:white;stroke-opacity:0.5;stroke-width:2px;"/>
            <path d="M369.04,202.125L455.564,202.125L455.564,251.649L477.016,251.649" style="fill:none;stroke:white;stroke-opacity:0.5;stroke-width:2px;"/>
            <path d="M363.727,160L424.066,160L424.066,132.298L477.016,132.298" style="fill:none;stroke:white;stroke-opacity:0.5;stroke-width:2px;"/>
            <path d="M368.281,109.908L477.016,109.908" style="fill:none;stroke:white;stroke-opacity:0.5;stroke-width:2px;"/>
            <path d="M369.419,87.138L430.138,87.138L430.138,41.978L477.016,41.978" style="fill:none;stroke:white;stroke-opacity:0.5;stroke-width:2px;"/>
            <g transform="matrix(2.82219,0,0,2.82219,-2560.49,-548.481)">
                <rect x="943.816" y="264.095" width="96.988" height="6.336" style="fill:rgb(203,86,40);fill-rule:nonzero;"/>
                <rect x="943.816" y="238.029" width="96.988" height="26.112" style="fill:rgb(238,131,68);fill-rule:nonzero;"/>
                <rect x="944.418" y="238.658" width="95.784" height="24.855" style="fill:rgb(233,103,37);fill-rule:nonzero;"/>
                <rect x="943.816" y="270.42" width="96.988" height="8.966" style="fill:rgb(109,190,175);fill-rule:nonzero;"/>
                <rect x="947.919" y="271.183" width="26.858" height="7.44" style="fill:rgb(118,114,113);fill-rule:nonzero;"/>
                <rect x="978.881" y="271.183" width="26.858" height="7.44" style="fill:rgb(118,114,113);fill-rule:nonzero;"/>
                <rect x="1009.84" y="271.183" width="26.858" height="7.44" style="fill:rgb(118,114,113);fill-rule:nonzero;"/>
                <path d="M984.849,278.623L987.833,278.623L987.833,271.183L984.849,271.183L984.849,278.623ZM986.341,274.226C986.959,274.226 987.46,274.727 987.46,275.345C987.46,275.963 986.959,276.464 986.341,276.464C985.724,276.464 985.222,275.963 985.222,275.345C985.222,274.727 985.724,274.226 986.341,274.226Z" style="fill:rgb(132,199,191);fill-rule:nonzero;"/>
                <path d="M981.865,278.623L984.849,278.623L984.849,271.183L981.865,271.183L981.865,278.623ZM983.357,274.226C983.975,274.226 984.476,274.727 984.476,275.345C984.476,275.963 983.975,276.464 983.357,276.464C982.739,276.464 982.238,275.963 982.238,275.345C982.238,274.727 982.739,274.226 983.357,274.226Z" style="fill:rgb(132,199,191);fill-rule:nonzero;"/>
                <path d="M978.881,278.623L981.865,278.623L981.865,271.183L978.881,271.183L978.881,278.623ZM980.373,274.226C980.99,274.226 981.492,274.727 981.492,275.345C981.492,275.963 980.99,276.464 980.373,276.464C979.755,276.464 979.254,275.963 979.254,275.345C979.254,274.727 979.755,274.226 980.373,274.226Z" style="fill:rgb(132,199,191);fill-rule:nonzero;"/>
                <path d="M993.802,278.623L996.786,278.623L996.786,271.183L993.802,271.183L993.802,278.623ZM995.294,274.226C995.912,274.226 996.413,274.727 996.413,275.345C996.413,275.963 995.912,276.464 995.294,276.464C994.676,276.464 994.175,275.963 994.175,275.345C994.175,274.727 994.676,274.226 995.294,274.226Z" style="fill:rgb(132,199,191);fill-rule:nonzero;"/>
                <path d="M990.818,278.623L993.802,278.623L993.802,271.183L990.818,271.183L990.818,278.623ZM992.31,274.226C992.927,274.226 993.429,274.727 993.429,275.345C993.429,275.963 992.927,276.464 992.31,276.464C991.692,276.464 991.191,275.963 991.191,275.345C991.191,274.727 991.692,274.226 992.31,274.226Z" style="fill:rgb(132,199,191);fill-rule:nonzero;"/>
                <path d="M987.833,278.623L990.817,278.623L990.817,271.183L987.833,271.183L987.833,278.623ZM989.326,274.226C989.943,274.226 990.445,274.727 990.445,275.345C990.445,275.963 989.943,276.464 989.326,276.464C988.708,276.464 988.206,275.963 988.206,275.345C988.206,274.727 988.708,274.226 989.326,274.226Z" style="fill:rgb(132,199,191);fill-rule:nonzero;"/>
                <path d="M1002.75,278.623L1005.73,278.623L1005.73,271.183L1002.75,271.183L1002.75,278.623ZM1004.25,274.226C1004.86,274.226 1005.37,274.727 1005.37,275.345C1005.37,275.963 1004.86,276.464 1004.25,276.464C1003.63,276.464 1003.13,275.963 1003.13,275.345C1003.13,274.727 1003.63,274.226 1004.25,274.226Z" style="fill:rgb(132,199,191);fill-rule:nonzero;"/>
                <path d="M999.77,278.623L1002.75,278.623L1002.75,271.183L999.77,271.183L999.77,278.623ZM1001.26,274.226C1001.88,274.226 1002.38,274.727 1002.38,275.345C1002.38,275.963 1001.88,276.464 1001.26,276.464C1000.64,276.464 1000.14,275.963 1000.14,275.345C1000.14,274.727 1000.64,274.226 1001.26,274.226Z" style="fill:rgb(132,199,191);fill-rule:nonzero;"/>
                <path d="M996.786,278.623L999.77,278.623L999.77,271.183L996.786,271.183L996.786,278.623ZM998.278,274.226C998.896,274.226 999.397,274.727 999.397,275.345C999.397,275.963 998.896,276.464 998.278,276.464C997.661,276.464 997.159,275.963 997.159,275.345C997.159,274.727 997.661,274.226 998.278,274.226Z" style="fill:rgb(132,199,191);fill-rule:nonzero;"/>
                <path d="M953.887,278.623L956.871,278.623L956.871,271.183L953.887,271.183L953.887,278.623ZM955.38,274.226C955.997,274.226 956.499,274.727 956.499,275.345C956.499,275.963 955.997,276.464 955.38,276.464C954.762,276.464 954.261,275.963 954.261,275.345C954.261,274.727 954.762,274.226 955.38,274.226Z" style="fill:rgb(132,199,191);fill-rule:nonzero;"/>
                <path d="M950.903,278.623L953.887,278.623L953.887,271.183L950.903,271.183L950.903,278.623ZM952.395,274.226C953.013,274.226 953.514,274.727 953.514,275.345C953.514,275.963 953.013,276.464 952.395,276.464C951.778,276.464 951.276,275.963 951.276,275.345C951.276,274.727 951.778,274.226 952.395,274.226Z" style="fill:rgb(132,199,191);fill-rule:nonzero;"/>
                <path d="M947.919,278.623L950.903,278.623L950.903,271.183L947.919,271.183L947.919,278.623ZM949.411,274.226C950.029,274.226 950.53,274.727 950.53,275.345C950.53,275.963 950.029,276.464 949.411,276.464C948.793,276.464 948.292,275.963 948.292,275.345C948.292,274.727 948.793,274.226 949.411,274.226Z" style="fill:rgb(132,199,191);fill-rule:nonzero;"/>
                <path d="M962.84,278.623L965.824,278.623L965.824,271.183L962.84,271.183L962.84,278.623ZM964.332,274.226C964.95,274.226 965.451,274.727 965.451,275.345C965.451,275.963 964.95,276.464 964.332,276.464C963.715,276.464 963.213,275.963 963.213,275.345C963.213,274.727 963.715,274.226 964.332,274.226Z" style="fill:rgb(132,199,191);fill-rule:nonzero;"/>
                <path d="M959.856,278.623L962.84,278.623L962.84,271.183L959.856,271.183L959.856,278.623ZM961.348,274.226C961.966,274.226 962.467,274.727 962.467,275.345C962.467,275.963 961.966,276.464 961.348,276.464C960.73,276.464 960.229,275.963 960.229,275.345C960.229,274.727 960.73,274.226 961.348,274.226Z" style="fill:rgb(132,199,191);fill-rule:nonzero;"/>
                <path d="M956.872,278.623L959.856,278.623L959.856,271.183L956.872,271.183L956.872,278.623ZM958.364,274.226C958.982,274.226 959.483,274.727 959.483,275.345C959.483,275.963 958.982,276.464 958.364,276.464C957.746,276.464 957.245,275.963 957.245,275.345C957.245,274.727 957.746,274.226 958.364,274.226Z" style="fill:rgb(132,199,191);fill-rule:nonzero;"/>
                <path d="M971.793,278.623L974.777,278.623L974.777,271.183L971.793,271.183L971.793,278.623ZM973.285,274.226C973.903,274.226 974.404,274.727 974.404,275.345C974.404,275.963 973.903,276.464 973.285,276.464C972.667,276.464 972.166,275.963 972.166,275.345C972.166,274.727 972.667,274.226 973.285,274.226Z" style="fill:rgb(132,199,191);fill-rule:nonzero;"/>
                <path d="M968.809,278.623L971.793,278.623L971.793,271.183L968.809,271.183L968.809,278.623ZM970.301,274.226C970.919,274.226 971.42,274.727 971.42,275.345C971.42,275.963 970.919,276.464 970.301,276.464C969.683,276.464 969.182,275.963 969.182,275.345C969.182,274.727 969.683,274.226 970.301,274.226Z" style="fill:rgb(132,199,191);fill-rule:nonzero;"/>
                <path d="M965.825,278.623L968.809,278.623L968.809,271.183L965.825,271.183L965.825,278.623ZM967.317,274.226C967.934,274.226 968.436,274.727 968.436,275.345C968.436,275.963 967.934,276.464 967.317,276.464C966.699,276.464 966.198,275.963 966.198,275.345C966.198,274.727 966.699,274.226 967.317,274.226Z" style="fill:rgb(132,199,191);fill-rule:nonzero;"/>
                <path d="M1015.81,278.623L1018.79,278.623L1018.79,271.183L1015.81,271.183L1015.81,278.623ZM1017.3,274.226C1017.92,274.226 1018.42,274.727 1018.42,275.345C1018.42,275.963 1017.92,276.464 1017.3,276.464C1016.69,276.464 1016.18,275.963 1016.18,275.345C1016.18,274.727 1016.69,274.226 1017.3,274.226Z" style="fill:rgb(132,199,191);fill-rule:nonzero;"/>
                <path d="M1012.83,278.623L1015.81,278.623L1015.81,271.183L1012.83,271.183L1012.83,278.623ZM1014.32,274.226C1014.94,274.226 1015.44,274.727 1015.44,275.345C1015.44,275.963 1014.94,276.464 1014.32,276.464C1013.7,276.464 1013.2,275.963 1013.2,275.345C1013.2,274.727 1013.7,274.226 1014.32,274.226Z" style="fill:rgb(132,199,191);fill-rule:nonzero;"/>
                <path d="M1009.84,278.623L1012.82,278.623L1012.82,271.183L1009.84,271.183L1009.84,278.623ZM1011.33,274.226C1011.95,274.226 1012.45,274.727 1012.45,275.345C1012.45,275.963 1011.95,276.464 1011.33,276.464C1010.72,276.464 1010.22,275.963 1010.22,275.345C1010.22,274.727 1010.72,274.226 1011.33,274.226Z" style="fill:rgb(132,199,191);fill-rule:nonzero;"/>
                <path d="M1024.76,278.623L1027.74,278.623L1027.74,271.183L1024.76,271.183L1024.76,278.623ZM1026.26,274.226C1026.87,274.226 1027.37,274.727 1027.37,275.345C1027.37,275.963 1026.87,276.464 1026.26,276.464C1025.64,276.464 1025.14,275.963 1025.14,275.345C1025.14,274.727 1025.64,274.226 1026.26,274.226Z" style="fill:rgb(132,199,191);fill-rule:nonzero;"/>
                <path d="M1021.78,278.623L1024.76,278.623L1024.76,271.183L1021.78,271.183L1021.78,278.623ZM1023.27,274.226C1023.89,274.226 1024.39,274.727 1024.39,275.345C1024.39,275.963 1023.89,276.464 1023.27,276.464C1022.65,276.464 1022.15,275.963 1022.15,275.345C1022.15,274.727 1022.65,274.226 1023.27,274.226Z" style="fill:rgb(132,199,191);fill-rule:nonzero;"/>
                <path d="M1018.8,278.623L1021.78,278.623L1021.78,271.183L1018.8,271.183L1018.8,278.623ZM1020.29,274.226C1020.9,274.226 1021.41,274.727 1021.41,275.345C1021.41,275.963 1020.9,276.464 1020.29,276.464C1019.67,276.464 1019.17,275.963 1019.17,275.345C1019.17,274.727 1019.67,274.226 1020.29,274.226Z" style="fill:rgb(132,199,191);fill-rule:nonzero;"/>
                <path d="M1033.72,278.623L1036.7,278.623L1036.7,271.183L1033.72,271.183L1033.72,278.623ZM1035.21,274.226C1035.83,274.226 1036.33,274.727 1036.33,275.345C1036.33,275.963 1035.83,276.464 1035.21,276.464C1034.59,276.464 1034.09,275.963 1034.09,275.345C1034.09,274.727 1034.59,274.226 1035.21,274.226Z" style="fill:rgb(132,199,191);fill-rule:nonzero;"/>
                <path d="M1030.73,278.623L1033.71,278.623L1033.71,271.183L1030.73,271.183L1030.73,278.623ZM1032.22,274.226C1032.84,274.226 1033.34,274.727 1033.34,275.345C1033.34,275.963 1032.84,276.464 1032.22,276.464C1031.61,276.464 1031.11,275.963 1031.11,275.345C1031.11,274.727 1031.61,274.226 1032.22,274.226Z" style="fill:rgb(132,199,191);fill-rule:nonzero;"/>
                <path d="M1027.75,278.623L1030.73,278.623L1030.73,271.183L1027.75,271.183L1027.75,278.623ZM1029.24,274.226C1029.86,274.226 1030.36,274.727 1030.36,275.345C1030.36,275.963 1029.86,276.464 1029.24,276.464C1028.62,276.464 1028.12,275.963 1028.12,275.345C1028.12,274.727 1028.62,274.226 1029.24,274.226Z" style="fill:rgb(132,199,191);fill-rule:nonzero;"/>
                <rect x="943.816" y="231.693" width="96.988" height="6.336" style="fill:rgb(203,86,40);fill-rule:nonzero;"/>
                <rect x="943.816" y="222.693" width="96.988" height="8.966" style="fill:rgb(109,190,175);fill-rule:nonzero;"/>
                <path d="M982.797,259.151C983.312,259.151 983.73,259.569 983.73,260.084C983.73,260.599 983.312,261.016 982.797,261.016C982.283,261.016 981.865,260.599 981.865,260.084C981.865,259.569 982.283,259.151 982.797,259.151Z" style="fill:rgb(0,255,0);fill-rule:nonzero;"/>
                <path d="M953.887,259.151C954.402,259.151 954.82,259.569 954.82,260.084C954.82,260.599 954.402,261.016 953.887,261.016C953.373,261.016 952.955,260.599 952.955,260.084C952.955,259.569 953.373,259.151 953.887,259.151Z" style="fill:rgb(0,255,0);fill-rule:nonzero;"/>
                <path d="M985.902,259.151C986.417,259.151 986.835,259.569 986.835,260.084C986.835,260.599 986.417,261.016 985.902,261.016C985.388,261.016 984.97,260.599 984.97,260.084C984.97,259.569 985.388,259.151 985.902,259.151Z" style="fill:rgb(0,255,0);fill-rule:nonzero;"/>
                <path d="M989.007,259.151C989.522,259.151 989.94,259.569 989.94,260.084C989.94,260.599 989.522,261.016 989.007,261.016C988.493,261.016 988.075,260.599 988.075,260.084C988.075,259.569 988.493,259.151 989.007,259.151Z" style="fill:rgb(0,255,0);fill-rule:nonzero;"/>
                <path d="M992.112,259.151C992.627,259.151 993.045,259.569 993.045,260.084C993.045,260.599 992.627,261.016 992.112,261.016C991.598,261.016 991.18,260.599 991.18,260.084C991.18,259.569 991.598,259.151 992.112,259.151Z" style="fill:rgb(0,255,0);fill-rule:nonzero;"/>
                <path d="M1004.65,259.151C1005.17,259.151 1005.59,259.569 1005.59,260.084C1005.59,260.599 1005.17,261.016 1004.65,261.016C1004.14,261.016 1003.72,260.599 1003.72,260.084C1003.72,259.569 1004.14,259.151 1004.65,259.151Z" style="fill:rgb(0,255,0);fill-rule:nonzero;"/>
                <path d="M1015.07,259.151C1015.58,259.151 1016,259.569 1016,260.084C1016,260.599 1015.58,261.016 1015.07,261.016C1014.55,261.016 1014.14,260.599 1014.14,260.084C1014.14,259.569 1014.55,259.151 1015.07,259.151Z" style="fill:rgb(0,255,0);fill-rule:nonzero;"/>
                <path d="M1021.4,241.062C1021.92,241.062 1022.33,241.48 1022.33,241.994C1022.33,242.509 1021.92,242.927 1021.4,242.927C1020.89,242.927 1020.47,242.509 1020.47,241.994C1020.47,241.48 1020.89,241.062 1021.4,241.062Z" style="fill:rgb(0,255,0);fill-rule:nonzero;"/>
                <path d="M1011.89,241.062C1012.41,241.062 1012.83,241.48 1012.83,241.994C1012.83,242.509 1012.41,242.927 1011.89,242.927C1011.38,242.927 1010.96,242.509 1010.96,241.994C1010.96,241.48 1011.38,241.062 1011.89,241.062Z" style="fill:rgb(0,255,0);fill-rule:nonzero;"/>
                <path d="M995.294,241.062C995.809,241.062 996.227,241.48 996.227,241.994C996.227,242.509 995.809,242.927 995.294,242.927C994.779,242.927 994.361,242.509 994.361,241.994C994.361,241.48 994.779,241.062 995.294,241.062Z" style="fill:rgb(0,255,0);fill-rule:nonzero;"/>
                <path d="M979.813,241.062C980.328,241.062 980.746,241.48 980.746,241.994C980.746,242.509 980.328,242.927 979.813,242.927C979.298,242.927 978.881,242.509 978.881,241.994C978.881,241.48 979.298,241.062 979.813,241.062Z" style="fill:rgb(0,255,0);fill-rule:nonzero;"/>
                <path d="M1024.51,259.151C1025.03,259.151 1025.45,259.569 1025.45,260.084C1025.45,260.599 1025.03,261.016 1024.51,261.016C1024,261.016 1023.58,260.599 1023.58,260.084C1023.58,259.569 1024,259.151 1024.51,259.151Z" style="fill:rgb(0,255,0);fill-rule:nonzero;"/>
                <path d="M1037.18,259.151C1037.69,259.151 1038.11,259.569 1038.11,260.084C1038.11,260.599 1037.69,261.016 1037.18,261.016C1036.67,261.016 1036.25,260.599 1036.25,260.084C1036.25,259.569 1036.67,259.151 1037.18,259.151Z" style="fill:rgb(0,255,0);fill-rule:nonzero;"/>
                <rect x="1009.84" y="223.455" width="26.858" height="7.44" style="fill:rgb(118,114,113);fill-rule:nonzero;"/>
                <rect x="978.881" y="223.455" width="26.858" height="7.44" style="fill:rgb(118,114,113);fill-rule:nonzero;"/>
                <rect x="947.919" y="223.455" width="26.858" height="7.44" style="fill:rgb(118,114,113);fill-rule:nonzero;"/>
                <path d="M996.786,230.895L999.77,230.895L999.77,223.455L996.786,223.455L996.786,230.895ZM998.278,227.852C997.661,227.852 997.159,227.351 997.159,226.733C997.159,226.116 997.661,225.614 998.278,225.614C998.896,225.614 999.397,226.116 999.397,226.733C999.397,227.351 998.896,227.852 998.278,227.852Z" style="fill:rgb(132,199,191);fill-rule:nonzero;"/>
                <path d="M999.77,230.895L1002.75,230.895L1002.75,223.455L999.77,223.455L999.77,230.895ZM1001.26,227.852C1000.64,227.852 1000.14,227.351 1000.14,226.733C1000.14,226.116 1000.64,225.614 1001.26,225.614C1001.88,225.614 1002.38,226.116 1002.38,226.733C1002.38,227.351 1001.88,227.852 1001.26,227.852Z" style="fill:rgb(132,199,191);fill-rule:nonzero;"/>
                <path d="M1002.75,230.895L1005.73,230.895L1005.73,223.455L1002.75,223.455L1002.75,230.895ZM1004.25,227.852C1003.63,227.852 1003.13,227.351 1003.13,226.733C1003.13,226.116 1003.63,225.614 1004.25,225.614C1004.86,225.614 1005.37,226.116 1005.37,226.733C1005.37,227.351 1004.86,227.852 1004.25,227.852Z" style="fill:rgb(132,199,191);fill-rule:nonzero;"/>
                <path d="M987.833,230.895L990.817,230.895L990.817,223.455L987.833,223.455L987.833,230.895ZM989.326,227.852C988.708,227.852 988.206,227.351 988.206,226.733C988.206,226.116 988.708,225.614 989.326,225.614C989.943,225.614 990.445,226.116 990.445,226.733C990.445,227.351 989.943,227.852 989.326,227.852Z" style="fill:rgb(132,199,191);fill-rule:nonzero;"/>
                <path d="M990.818,230.895L993.802,230.895L993.802,223.455L990.818,223.455L990.818,230.895ZM992.31,227.852C991.692,227.852 991.191,227.351 991.191,226.733C991.191,226.116 991.692,225.614 992.31,225.614C992.927,225.614 993.429,226.116 993.429,226.733C993.429,227.351 992.927,227.852 992.31,227.852Z" style="fill:rgb(132,199,191);fill-rule:nonzero;"/>
                <path d="M993.802,230.895L996.786,230.895L996.786,223.455L993.802,223.455L993.802,230.895ZM995.294,227.852C994.676,227.852 994.175,227.351 994.175,226.733C994.175,226.116 994.676,225.614 995.294,225.614C995.912,225.614 996.413,226.116 996.413,226.733C996.413,227.351 995.912,227.852 995.294,227.852Z" style="fill:rgb(132,199,191);fill-rule:nonzero;"/>
                <path d="M978.881,230.895L981.865,230.895L981.865,223.455L978.881,223.455L978.881,230.895ZM980.373,227.852C979.755,227.852 979.254,227.351 979.254,226.733C979.254,226.116 979.755,225.614 980.373,225.614C980.99,225.614 981.492,226.116 981.492,226.733C981.492,227.351 980.99,227.852 980.373,227.852Z" style="fill:rgb(132,199,191);fill-rule:nonzero;"/>
                <path d="M981.865,230.895L984.849,230.895L984.849,223.455L981.865,223.455L981.865,230.895ZM983.357,227.852C982.739,227.852 982.238,227.351 982.238,226.733C982.238,226.116 982.739,225.614 983.357,225.614C983.975,225.614 984.476,226.116 984.476,226.733C984.476,227.351 983.975,227.852 983.357,227.852Z" style="fill:rgb(132,199,191);fill-rule:nonzero;"/>
                <path d="M984.849,230.895L987.833,230.895L987.833,223.455L984.849,223.455L984.849,230.895ZM986.341,227.852C985.724,227.852 985.222,227.351 985.222,226.733C985.222,226.116 985.724,225.614 986.341,225.614C986.959,225.614 987.46,226.116 987.46,226.733C987.46,227.351 986.959,227.852 986.341,227.852Z" style="fill:rgb(132,199,191);fill-rule:nonzero;"/>
                <path d="M1027.75,230.895L1030.73,230.895L1030.73,223.455L1027.75,223.455L1027.75,230.895ZM1029.24,227.852C1028.62,227.852 1028.12,227.351 1028.12,226.733C1028.12,226.116 1028.62,225.614 1029.24,225.614C1029.86,225.614 1030.36,226.116 1030.36,226.733C1030.36,227.351 1029.86,227.852 1029.24,227.852Z" style="fill:rgb(132,199,191);fill-rule:nonzero;"/>
                <path d="M1030.73,230.895L1033.71,230.895L1033.71,223.455L1030.73,223.455L1030.73,230.895ZM1032.22,227.852C1031.61,227.852 1031.11,227.351 1031.11,226.733C1031.11,226.116 1031.61,225.614 1032.22,225.614C1032.84,225.614 1033.34,226.116 1033.34,226.733C1033.34,227.351 1032.84,227.852 1032.22,227.852Z" style="fill:rgb(132,199,191);fill-rule:nonzero;"/>
                <path d="M1033.72,230.895L1036.7,230.895L1036.7,223.455L1033.72,223.455L1033.72,230.895ZM1035.21,227.852C1034.59,227.852 1034.09,227.351 1034.09,226.733C1034.09,226.116 1034.59,225.614 1035.21,225.614C1035.83,225.614 1036.33,226.116 1036.33,226.733C1036.33,227.351 1035.83,227.852 1035.21,227.852Z" style="fill:rgb(132,199,191);fill-rule:nonzero;"/>
                <path d="M1018.8,230.895L1021.78,230.895L1021.78,223.455L1018.8,223.455L1018.8,230.895ZM1020.29,227.852C1019.67,227.852 1019.17,227.351 1019.17,226.733C1019.17,226.116 1019.67,225.614 1020.29,225.614C1020.9,225.614 1021.41,226.116 1021.41,226.733C1021.41,227.351 1020.9,227.852 1020.29,227.852Z" style="fill:rgb(132,199,191);fill-rule:nonzero;"/>
                <path d="M1021.78,230.895L1024.76,230.895L1024.76,223.455L1021.78,223.455L1021.78,230.895ZM1023.27,227.852C1022.65,227.852 1022.15,227.351 1022.15,226.733C1022.15,226.116 1022.65,225.614 1023.27,225.614C1023.89,225.614 1024.39,226.116 1024.39,226.733C1024.39,227.351 1023.89,227.852 1023.27,227.852Z" style="fill:rgb(132,199,191);fill-rule:nonzero;"/>
                <path d="M1024.76,230.895L1027.74,230.895L1027.74,223.455L1024.76,223.455L1024.76,230.895ZM1026.26,227.852C1025.64,227.852 1025.14,227.351 1025.14,226.733C1025.14,226.116 1025.64,225.614 1026.26,225.614C1026.87,225.614 1027.37,226.116 1027.37,226.733C1027.37,227.351 1026.87,227.852 1026.26,227.852Z" style="fill:rgb(132,199,191);fill-rule:nonzero;"/>
                <path d="M1009.84,230.895L1012.82,230.895L1012.82,223.455L1009.84,223.455L1009.84,230.895ZM1011.33,227.852C1010.72,227.852 1010.22,227.351 1010.22,226.733C1010.22,226.116 1010.72,225.614 1011.33,225.614C1011.95,225.614 1012.45,226.116 1012.45,226.733C1012.45,227.351 1011.95,227.852 1011.33,227.852Z" style="fill:rgb(132,199,191);fill-rule:nonzero;"/>
                <path d="M1012.83,230.895L1015.81,230.895L1015.81,223.455L1012.83,223.455L1012.83,230.895ZM1014.32,227.852C1013.7,227.852 1013.2,227.351 1013.2,226.733C1013.2,226.116 1013.7,225.614 1014.32,225.614C1014.94,225.614 1015.44,226.116 1015.44,226.733C1015.44,227.351 1014.94,227.852 1014.32,227.852Z" style="fill:rgb(132,199,191);fill-rule:nonzero;"/>
                <path d="M1015.81,230.895L1018.79,230.895L1018.79,223.455L1015.81,223.455L1015.81,230.895ZM1017.3,227.852C1016.69,227.852 1016.18,227.351 1016.18,226.733C1016.18,226.116 1016.69,225.614 1017.3,225.614C1017.92,225.614 1018.42,226.116 1018.42,226.733C1018.42,227.351 1017.92,227.852 1017.3,227.852Z" style="fill:rgb(132,199,191);fill-rule:nonzero;"/>
                <path d="M965.825,230.895L968.809,230.895L968.809,223.455L965.825,223.455L965.825,230.895ZM967.317,227.852C966.699,227.852 966.198,227.351 966.198,226.733C966.198,226.116 966.699,225.614 967.317,225.614C967.934,225.614 968.436,226.116 968.436,226.733C968.436,227.351 967.934,227.852 967.317,227.852Z" style="fill:rgb(132,199,191);fill-rule:nonzero;"/>
                <path d="M968.809,230.895L971.793,230.895L971.793,223.455L968.809,223.455L968.809,230.895ZM970.301,227.852C969.683,227.852 969.182,227.351 969.182,226.733C969.182,226.116 969.683,225.614 970.301,225.614C970.919,225.614 971.42,226.116 971.42,226.733C971.42,227.351 970.919,227.852 970.301,227.852Z" style="fill:rgb(132,199,191);fill-rule:nonzero;"/>
                <path d="M971.793,230.895L974.777,230.895L974.777,223.455L971.793,223.455L971.793,230.895ZM973.285,227.852C972.667,227.852 972.166,227.351 972.166,226.733C972.166,226.116 972.667,225.614 973.285,225.614C973.903,225.614 974.404,226.116 974.404,226.733C974.404,227.351 973.903,227.852 973.285,227.852Z" style="fill:rgb(132,199,191);fill-rule:nonzero;"/>
                <path d="M956.872,230.895L959.856,230.895L959.856,223.455L956.872,223.455L956.872,230.895ZM958.364,227.852C957.746,227.852 957.245,227.351 957.245,226.733C957.245,226.116 957.746,225.614 958.364,225.614C958.982,225.614 959.483,226.116 959.483,226.733C959.483,227.351 958.982,227.852 958.364,227.852Z" style="fill:rgb(132,199,191);fill-rule:nonzero;"/>
                <path d="M959.856,230.895L962.84,230.895L962.84,223.455L959.856,223.455L959.856,230.895ZM961.348,227.852C960.73,227.852 960.229,227.351 960.229,226.733C960.229,226.116 960.73,225.614 961.348,225.614C961.966,225.614 962.467,226.116 962.467,226.733C962.467,227.351 961.966,227.852 961.348,227.852Z" style="fill:rgb(132,199,191);fill-rule:nonzero;"/>
                <path d="M962.84,230.895L965.824,230.895L965.824,223.455L962.84,223.455L962.84,230.895ZM964.332,227.852C963.715,227.852 963.213,227.351 963.213,226.733C963.213,226.116 963.715,225.614 964.332,225.614C964.95,225.614 965.451,226.116 965.451,226.733C965.451,227.351 964.95,227.852 964.332,227.852Z" style="fill:rgb(132,199,191);fill-rule:nonzero;"/>
                <path d="M947.919,230.895L950.903,230.895L950.903,223.455L947.919,223.455L947.919,230.895ZM949.411,227.852C948.793,227.852 948.292,227.351 948.292,226.733C948.292,226.116 948.793,225.614 949.411,225.614C950.029,225.614 950.53,226.116 950.53,226.733C950.53,227.351 950.029,227.852 949.411,227.852Z" style="fill:rgb(132,199,191);fill-rule:nonzero;"/>
                <path d="M950.903,230.895L953.887,230.895L953.887,223.455L950.903,223.455L950.903,230.895ZM952.395,227.852C951.778,227.852 951.276,227.351 951.276,226.733C951.276,226.116 951.778,225.614 952.395,225.614C953.013,225.614 953.514,226.116 953.514,226.733C953.514,227.351 953.013,227.852 952.395,227.852Z" style="fill:rgb(132,199,191);fill-rule:nonzero;"/>
                <path d="M953.887,230.895L956.871,230.895L956.871,223.455L953.887,223.455L953.887,230.895ZM955.38,227.852C954.762,227.852 954.261,227.351 954.261,226.733C954.261,226.116 954.762,225.614 955.38,225.614C955.997,225.614 956.499,226.116 956.499,226.733C956.499,227.351 955.997,227.852 955.38,227.852Z" style="fill:rgb(132,199,191);fill-rule:nonzero;"/>
                <rect x="961.348" y="245.685" width="11.981" height="10.8" style="fill:rgb(191,191,191);fill-rule:nonzero;"/>
                <path d="M968.579,247.825L969.942,247.825L969.942,249.271L972.411,249.271L972.411,255.036L962.267,255.036L962.267,249.271L964.735,249.271L964.735,247.825L966.098,247.825L966.098,247.149L968.579,247.149L968.579,247.825Z" style="fill:rgb(118,114,113);fill-rule:nonzero;"/>
            </g>
        </g>
    </g>
    <defs>
        <linearGradient id="_Linear1" x1="0" y1="0" x2="1" y2="0" gradientUnits="userSpaceOnUse" gradientTransform="matrix(0,0,0,156.944,362.005,81.528)"><stop offset="0" style="stop-color:white;stop-opacity:0.5"/><stop offset="1" style="stop-color:white;stop-opacity:0.5"/></linearGradient>
    </defs>
</svg>
