<?xml version="1.0" encoding="UTF-8" standalone="no"?><!DOCTYPE svg PUBLIC "-//W3C//DTD SVG 1.1//EN" "http://www.w3.org/Graphics/SVG/1.1/DTD/svg11.dtd"><svg width="100%" height="100%" viewBox="0 0 960 340" version="1.1" xmlns="http://www.w3.org/2000/svg" xmlns:xlink="http://www.w3.org/1999/xlink" xml:space="preserve" style="fill-rule:evenodd;clip-rule:evenodd;stroke-linejoin:round;stroke-miterlimit:1.5;"><g><g opacity="0.25"><path d="M32.114,-535.33c-3.333,8.334 -10,16.667 -10,25c0,8.334 10,16.667 10,25c0,8.334 -10,16.667 -10,25c0,8.334 10,16.667 10,25c0,8.334 -10,16.667 -10,25c0,8.334 10,16.667 10,25c0,8.334 -10,16.667 -10,25c0,8.334 10,16.667 10,25c0,8.334 -10,16.667 -10,25c0,8.334 10,16.667 10,25c0,8.334 -10,16.667 -10,25c0,8.334 10,16.667 10,25c0,8.334 -10,16.667 -10,25c0,8.334 10,16.667 10,25c0,8.334 -10,16.667 -10,25c0,8.334 10,16.667 10,25c0,8.334 -10,16.667 -10,25c0,8.334 10,16.667 10,25c0,8.334 -10,16.667 -10,25c0,8.334 10,16.667 10,25c0,8.334 -10,16.667 -10,25c0,8.334 10,16.667 10,25c0,8.334 -10,16.667 -10,25c0,8.334 10,16.667 10,25c0,8.334 -10,16.667 -10,25c0,8.334 10,16.667 10,25c0,8.334 -10,16.667 -10,25c0,8.334 6.667,16.667 10,25" style="fill:none;stroke:#000;stroke-width:7px;"/><path d="M30.866,175.47c-0.179,0.31 -0.509,0.5 -0.866,0.5c-0.357,0 -0.687,-0.19 -0.866,-0.5c-1.892,-3.277 -6.376,-11.043 -8.268,-14.32c-0.179,-0.31 -0.179,-0.691 0,-1c0.179,-0.31 0.509,-0.5 0.866,-0.5c3.784,0 12.752,0 16.536,0c0.357,0 0.687,0.19 0.866,0.5c0.179,0.309 0.179,0.69 0,1c-1.892,3.277 -6.376,11.043 -8.268,14.32Z"/><path d="M52.114,-485.33c-3.333,8.334 -10,16.667 -10,25c0,8.334 10,16.667 10,25c0,8.334 -10,16.667 -10,25c0,8.334 10,16.667 10,25c0,8.334 -10,16.667 -10,25c0,8.334 10,16.667 10,25c0,8.334 -10,16.667 -10,25c0,8.334 10,16.667 10,25c0,8.334 -10,16.667 -10,25c0,8.334 10,16.667 10,25c0,8.334 -10,16.667 -10,25c0,8.334 10,16.667 10,25c0,8.334 -10,16.667 -10,25c0,8.334 10,16.667 10,25c0,8.334 -10,16.667 -10,25c0,8.334 10,16.667 10,25c0,8.334 -10,16.667 -10,25c0,8.334 10,16.667 10,25c0,8.334 -10,16.667 -10,25c0,8.334 10,16.667 10,25c0,8.334 -10,16.667 -10,25c0,8.334 10,16.667 10,25c0,8.334 -10,16.667 -10,25c0,8.334 10,16.667 10,25c0,8.334 -10,16.667 -10,25c0,8.334 10,16.667 10,25c0,8.334 -10,16.667 -10,25c0,8.334 6.667,16.667 10,25" style="fill:none;stroke:#000;stroke-width:7px;"/><path d="M50.866,225.47c-0.179,0.31 -0.509,0.5 -0.866,0.5c-0.357,0 -0.687,-0.19 -0.866,-0.5c-1.892,-3.277 -6.376,-11.043 -8.268,-14.32c-0.179,-0.31 -0.179,-0.691 0,-1c0.179,-0.31 0.509,-0.5 0.866,-0.5c3.784,0 12.752,0 16.536,0c0.357,0 0.687,0.19 0.866,0.5c0.179,0.309 0.179,0.69 0,1c-1.892,3.277 -6.376,11.043 -8.268,14.32Z"/><path d="M72.114,-435.33c-3.333,8.334 -10,16.667 -10,25c0,8.334 10,16.667 10,25c0,8.334 -10,16.667 -10,25c0,8.334 10,16.667 10,25c0,8.334 -10,16.667 -10,25c0,8.334 10,16.667 10,25c0,8.334 -10,16.667 -10,25c0,8.334 10,16.667 10,25c0,8.334 -10,16.667 -10,25c0,8.334 10,16.667 10,25c0,8.334 -10,16.667 -10,25c0,8.334 10,16.667 10,25c0,8.334 -10,16.667 -10,25c0,8.334 10,16.667 10,25c0,8.334 -10,16.667 -10,25c0,8.334 10,16.667 10,25c0,8.334 -10,16.667 -10,25c0,8.334 10,16.667 10,25c0,8.334 -10,16.667 -10,25c0,8.334 10,16.667 10,25c0,8.334 -10,16.667 -10,25c0,8.334 10,16.667 10,25c0,8.334 -10,16.667 -10,25c0,8.334 10,16.667 10,25c0,8.334 -10,16.667 -10,25c0,8.334 10,16.667 10,25c0,8.334 -10,16.667 -10,25c0,8.334 6.667,16.667 10,25" style="fill:none;stroke:#000;stroke-width:7px;"/><path d="M70.866,275.47c-0.179,0.31 -0.509,0.5 -0.866,0.5c-0.357,0 -0.687,-0.19 -0.866,-0.5c-1.892,-3.277 -6.376,-11.043 -8.268,-14.32c-0.179,-0.31 -0.179,-0.691 0,-1c0.179,-0.31 0.509,-0.5 0.866,-0.5c3.784,0 12.752,0 16.536,0c0.357,0 0.687,0.19 0.866,0.5c0.179,0.309 0.179,0.69 0,1c-1.892,3.277 -6.376,11.043 -8.268,14.32Z"/><path d="M92.114,-535.33c-3.333,8.334 -10,16.667 -10,25c0,8.334 10,16.667 10,25c0,8.334 -10,16.667 -10,25c0,8.334 10,16.667 10,25c0,8.334 -10,16.667 -10,25c0,8.334 10,16.667 10,25c0,8.334 -10,16.667 -10,25c0,8.334 10,16.667 10,25c0,8.334 -10,16.667 -10,25c0,8.334 10,16.667 10,25c0,8.334 -10,16.667 -10,25c0,8.334 10,16.667 10,25c0,8.334 -10,16.667 -10,25c0,8.334 10,16.667 10,25c0,8.334 -10,16.667 -10,25c0,8.334 10,16.667 10,25c0,8.334 -10,16.667 -10,25c0,8.334 10,16.667 10,25c0,8.334 -10,16.667 -10,25c0,8.334 10,16.667 10,25c0,8.334 -10,16.667 -10,25c0,8.334 10,16.667 10,25c0,8.334 -10,16.667 -10,25c0,8.334 10,16.667 10,25c0,8.334 -10,16.667 -10,25c0,8.334 10,16.667 10,25c0,8.334 -10,16.667 -10,25c0,8.334 6.667,16.667 10,25" style="fill:none;stroke:#000;stroke-width:7px;"/><path d="M90.866,175.47c-0.179,0.31 -0.509,0.5 -0.866,0.5c-0.357,0 -0.687,-0.19 -0.866,-0.5c-1.892,-3.277 -6.376,-11.043 -8.268,-14.32c-0.179,-0.31 -0.179,-0.691 0,-1c0.179,-0.31 0.509,-0.5 0.866,-0.5c3.784,0 12.752,0 16.536,0c0.357,0 0.687,0.19 0.866,0.5c0.179,0.309 0.179,0.69 0,1c-1.892,3.277 -6.376,11.043 -8.268,14.32Z"/><path d="M112.114,-385.33c-3.333,8.334 -10,16.667 -10,25c0,8.334 10,16.667 10,25c0,8.334 -10,16.667 -10,25c0,8.334 10,16.667 10,25c0,8.334 -10,16.667 -10,25c0,8.334 10,16.667 10,25c0,8.334 -10,16.667 -10,25c0,8.334 10,16.667 10,25c0,8.334 -10,16.667 -10,25c0,8.334 10,16.667 10,25c0,8.334 -10,16.667 -10,25c0,8.334 10,16.667 10,25c0,8.334 -10,16.667 -10,25c0,8.334 10,16.667 10,25c0,8.334 -10,16.667 -10,25c0,8.334 10,16.667 10,25c0,8.334 -10,16.667 -10,25c0,8.334 10,16.667 10,25c0,8.334 -10,16.667 -10,25c0,8.334 10,16.667 10,25c0,8.334 -10,16.667 -10,25c0,8.334 10,16.667 10,25c0,8.334 -10,16.667 -10,25c0,8.334 10,16.667 10,25c0,8.334 -10,16.667 -10,25c0,8.334 10,16.667 10,25c0,8.334 -10,16.667 -10,25c0,8.334 6.667,16.667 10,25" style="fill:none;stroke:#000;stroke-width:7px;"/><path d="M110.866,325.47c-0.179,0.31 -0.509,0.5 -0.866,0.5c-0.357,0 -0.687,-0.19 -0.866,-0.5c-1.892,-3.277 -6.376,-11.043 -8.268,-14.32c-0.179,-0.31 -0.179,-0.691 0,-1c0.179,-0.31 0.509,-0.5 0.866,-0.5c3.784,0 12.752,0 16.536,0c0.357,0 0.687,0.19 0.866,0.5c0.179,0.309 0.179,0.69 0,1c-1.892,3.277 -6.376,11.043 -8.268,14.32Z"/><path d="M132.114,-585.33c-3.333,8.334 -10,16.667 -10,25c0,8.334 10,16.667 10,25c0,8.334 -10,16.667 -10,25c0,8.334 10,16.667 10,25c0,8.334 -10,16.667 -10,25c0,8.334 10,16.667 10,25c0,8.334 -10,16.667 -10,25c0,8.334 10,16.667 10,25c0,8.334 -10,16.667 -10,25c0,8.334 10,16.667 10,25c0,8.334 -10,16.667 -10,25c0,8.334 10,16.667 10,25c0,8.334 -10,16.667 -10,25c0,8.334 10,16.667 10,25c0,8.334 -10,16.667 -10,25c0,8.334 10,16.667 10,25c0,8.334 -10,16.667 -10,25c0,8.334 10,16.667 10,25c0,8.334 -10,16.667 -10,25c0,8.334 10,16.667 10,25c0,8.334 -10,16.667 -10,25c0,8.334 10,16.667 10,25c0,8.334 -10,16.667 -10,25c0,8.334 10,16.667 10,25c0,8.334 -10,16.667 -10,25c0,8.334 10,16.667 10,25c0,8.334 -10,16.667 -10,25c0,8.334 6.667,16.667 10,25" style="fill:none;stroke:#000;stroke-width:7px;"/><path d="M130.866,125.47c-0.179,0.31 -0.509,0.5 -0.866,0.5c-0.357,0 -0.687,-0.19 -0.866,-0.5c-1.892,-3.277 -6.376,-11.043 -8.268,-14.32c-0.179,-0.31 -0.179,-0.691 0,-1c0.179,-0.31 0.509,-0.5 0.866,-0.5c3.784,0 12.752,0 16.536,0c0.357,0 0.687,0.19 0.866,0.5c0.179,0.309 0.179,0.69 0,1c-1.892,3.277 -6.376,11.043 -8.268,14.32Z"/><path d="M152.114,-435.33c-3.333,8.334 -10,16.667 -10,25c0,8.334 10,16.667 10,25c0,8.334 -10,16.667 -10,25c0,8.334 10,16.667 10,25c0,8.334 -10,16.667 -10,25c0,8.334 10,16.667 10,25c0,8.334 -10,16.667 -10,25c0,8.334 10,16.667 10,25c0,8.334 -10,16.667 -10,25c0,8.334 10,16.667 10,25c0,8.334 -10,16.667 -10,25c0,8.334 10,16.667 10,25c0,8.334 -10,16.667 -10,25c0,8.334 10,16.667 10,25c0,8.334 -10,16.667 -10,25c0,8.334 10,16.667 10,25c0,8.334 -10,16.667 -10,25c0,8.334 10,16.667 10,25c0,8.334 -10,16.667 -10,25c0,8.334 10,16.667 10,25c0,8.334 -10,16.667 -10,25c0,8.334 10,16.667 10,25c0,8.334 -10,16.667 -10,25c0,8.334 10,16.667 10,25c0,8.334 -10,16.667 -10,25c0,8.334 10,16.667 10,25c0,8.334 -10,16.667 -10,25c0,8.334 6.667,16.667 10,25" style="fill:none;stroke:#000;stroke-width:7px;"/><path d="M150.866,275.47c-0.179,0.31 -0.509,0.5 -0.866,0.5c-0.357,0 -0.687,-0.19 -0.866,-0.5c-1.892,-3.277 -6.376,-11.043 -8.268,-14.32c-0.179,-0.31 -0.179,-0.691 0,-1c0.179,-0.31 0.509,-0.5 0.866,-0.5c3.784,0 12.752,0 16.536,0c0.357,0 0.687,0.19 0.866,0.5c0.179,0.309 0.179,0.69 0,1c-1.892,3.277 -6.376,11.043 -8.268,14.32Z"/><path d="M172.114,-485.33c-3.333,8.334 -10,16.667 -10,25c0,8.334 10,16.667 10,25c0,8.334 -10,16.667 -10,25c0,8.334 10,16.667 10,25c0,8.334 -10,16.667 -10,25c0,8.334 10,16.667 10,25c0,8.334 -10,16.667 -10,25c0,8.334 10,16.667 10,25c0,8.334 -10,16.667 -10,25c0,8.334 10,16.667 10,25c0,8.334 -10,16.667 -10,25c0,8.334 10,16.667 10,25c0,8.334 -10,16.667 -10,25c0,8.334 10,16.667 10,25c0,8.334 -10,16.667 -10,25c0,8.334 10,16.667 10,25c0,8.334 -10,16.667 -10,25c0,8.334 10,16.667 10,25c0,8.334 -10,16.667 -10,25c0,8.334 10,16.667 10,25c0,8.334 -10,16.667 -10,25c0,8.334 10,16.667 10,25c0,8.334 -10,16.667 -10,25c0,8.334 10,16.667 10,25c0,8.334 -10,16.667 -10,25c0,8.334 10,16.667 10,25c0,8.334 -10,16.667 -10,25c0,8.334 6.667,16.667 10,25" style="fill:none;stroke:#000;stroke-width:7px;"/><path d="M170.866,225.47c-0.179,0.31 -0.509,0.5 -0.866,0.5c-0.357,0 -0.687,-0.19 -0.866,-0.5c-1.892,-3.277 -6.376,-11.043 -8.268,-14.32c-0.179,-0.31 -0.179,-0.691 0,-1c0.179,-0.31 0.509,-0.5 0.866,-0.5c3.784,0 12.752,0 16.536,0c0.357,0 0.687,0.19 0.866,0.5c0.179,0.309 0.179,0.69 0,1c-1.892,3.277 -6.376,11.043 -8.268,14.32Z"/><path d="M192.114,-535.33c-3.333,8.334 -10,16.667 -10,25c0,8.334 10,16.667 10,25c0,8.334 -10,16.667 -10,25c0,8.334 10,16.667 10,25c0,8.334 -10,16.667 -10,25c0,8.334 10,16.667 10,25c0,8.334 -10,16.667 -10,25c0,8.334 10,16.667 10,25c0,8.334 -10,16.667 -10,25c0,8.334 10,16.667 10,25c0,8.334 -10,16.667 -10,25c0,8.334 10,16.667 10,25c0,8.334 -10,16.667 -10,25c0,8.334 10,16.667 10,25c0,8.334 -10,16.667 -10,25c0,8.334 10,16.667 10,25c0,8.334 -10,16.667 -10,25c0,8.334 10,16.667 10,25c0,8.334 -10,16.667 -10,25c0,8.334 10,16.667 10,25c0,8.334 -10,16.667 -10,25c0,8.334 10,16.667 10,25c0,8.334 -10,16.667 -10,25c0,8.334 10,16.667 10,25c0,8.334 -10,16.667 -10,25c0,8.334 10,16.667 10,25c0,8.334 -10,16.667 -10,25c0,8.334 6.667,16.667 10,25" style="fill:none;stroke:#000;stroke-width:7px;"/><path d="M190.866,175.47c-0.179,0.31 -0.509,0.5 -0.866,0.5c-0.357,0 -0.687,-0.19 -0.866,-0.5c-1.892,-3.277 -6.376,-11.043 -8.268,-14.32c-0.179,-0.31 -0.179,-0.691 0,-1c0.179,-0.31 0.509,-0.5 0.866,-0.5c3.784,0 12.752,0 16.536,0c0.357,0 0.687,0.19 0.866,0.5c0.179,0.309 0.179,0.69 0,1c-1.892,3.277 -6.376,11.043 -8.268,14.32Z"/><path d="M212.114,-385.33c-3.333,8.334 -10,16.667 -10,25c0,8.334 10,16.667 10,25c0,8.334 -10,16.667 -10,25c0,8.334 10,16.667 10,25c0,8.334 -10,16.667 -10,25c0,8.334 10,16.667 10,25c0,8.334 -10,16.667 -10,25c0,8.334 10,16.667 10,25c0,8.334 -10,16.667 -10,25c0,8.334 10,16.667 10,25c0,8.334 -10,16.667 -10,25c0,8.334 10,16.667 10,25c0,8.334 -10,16.667 -10,25c0,8.334 10,16.667 10,25c0,8.334 -10,16.667 -10,25c0,8.334 10,16.667 10,25c0,8.334 -10,16.667 -10,25c0,8.334 10,16.667 10,25c0,8.334 -10,16.667 -10,25c0,8.334 10,16.667 10,25c0,8.334 -10,16.667 -10,25c0,8.334 10,16.667 10,25c0,8.334 -10,16.667 -10,25c0,8.334 10,16.667 10,25c0,8.334 -10,16.667 -10,25c0,8.334 10,16.667 10,25c0,8.334 -10,16.667 -10,25c0,8.334 6.667,16.667 10,25" style="fill:none;stroke:#000;stroke-width:7px;"/><path d="M210.866,325.47c-0.179,0.31 -0.509,0.5 -0.866,0.5c-0.357,0 -0.687,-0.19 -0.866,-0.5c-1.892,-3.277 -6.376,-11.043 -8.268,-14.32c-0.179,-0.31 -0.179,-0.691 0,-1c0.179,-0.31 0.509,-0.5 0.866,-0.5c3.784,0 12.752,0 16.536,0c0.357,0 0.687,0.19 0.866,0.5c0.179,0.309 0.179,0.69 0,1c-1.892,3.277 -6.376,11.043 -8.268,14.32Z"/><path d="M232.114,-435.33c-3.333,8.334 -10,16.667 -10,25c0,8.334 10,16.667 10,25c0,8.334 -10,16.667 -10,25c0,8.334 10,16.667 10,25c0,8.334 -10,16.667 -10,25c0,8.334 10,16.667 10,25c0,8.334 -10,16.667 -10,25c0,8.334 10,16.667 10,25c0,8.334 -10,16.667 -10,25c0,8.334 10,16.667 10,25c0,8.334 -10,16.667 -10,25c0,8.334 10,16.667 10,25c0,8.334 -10,16.667 -10,25c0,8.334 10,16.667 10,25c0,8.334 -10,16.667 -10,25c0,8.334 10,16.667 10,25c0,8.334 -10,16.667 -10,25c0,8.334 10,16.667 10,25c0,8.334 -10,16.667 -10,25c0,8.334 10,16.667 10,25c0,8.334 -10,16.667 -10,25c0,8.334 10,16.667 10,25c0,8.334 -10,16.667 -10,25c0,8.334 10,16.667 10,25c0,8.334 -10,16.667 -10,25c0,8.334 10,16.667 10,25c0,8.334 -10,16.667 -10,25c0,8.334 6.667,16.667 10,25" style="fill:none;stroke:#000;stroke-width:7px;"/><path d="M230.866,275.47c-0.179,0.31 -0.509,0.5 -0.866,0.5c-0.357,0 -0.687,-0.19 -0.866,-0.5c-1.892,-3.277 -6.376,-11.043 -8.268,-14.32c-0.179,-0.31 -0.179,-0.691 0,-1c0.179,-0.31 0.509,-0.5 0.866,-0.5c3.784,0 12.752,0 16.536,0c0.357,0 0.687,0.19 0.866,0.5c0.179,0.309 0.179,0.69 0,1c-1.892,3.277 -6.376,11.043 -8.268,14.32Z"/><path d="M252.114,-585.33c-3.333,8.334 -10,16.667 -10,25c0,8.334 10,16.667 10,25c0,8.334 -10,16.667 -10,25c0,8.334 10,16.667 10,25c0,8.334 -10,16.667 -10,25c0,8.334 10,16.667 10,25c0,8.334 -10,16.667 -10,25c0,8.334 10,16.667 10,25c0,8.334 -10,16.667 -10,25c0,8.334 10,16.667 10,25c0,8.334 -10,16.667 -10,25c0,8.334 10,16.667 10,25c0,8.334 -10,16.667 -10,25c0,8.334 10,16.667 10,25c0,8.334 -10,16.667 -10,25c0,8.334 10,16.667 10,25c0,8.334 -10,16.667 -10,25c0,8.334 10,16.667 10,25c0,8.334 -10,16.667 -10,25c0,8.334 10,16.667 10,25c0,8.334 -10,16.667 -10,25c0,8.334 10,16.667 10,25c0,8.334 -10,16.667 -10,25c0,8.334 10,16.667 10,25c0,8.334 -10,16.667 -10,25c0,8.334 10,16.667 10,25c0,8.334 -10,16.667 -10,25c0,8.334 6.667,16.667 10,25" style="fill:none;stroke:#000;stroke-width:7px;"/><path d="M250.866,125.47c-0.179,0.31 -0.509,0.5 -0.866,0.5c-0.357,0 -0.687,-0.19 -0.866,-0.5c-1.892,-3.277 -6.376,-11.043 -8.268,-14.32c-0.179,-0.31 -0.179,-0.691 0,-1c0.179,-0.31 0.509,-0.5 0.866,-0.5c3.784,0 12.752,0 16.536,0c0.357,0 0.687,0.19 0.866,0.5c0.179,0.309 0.179,0.69 0,1c-1.892,3.277 -6.376,11.043 -8.268,14.32Z"/><path d="M272.114,-485.33c-3.333,8.334 -10,16.667 -10,25c0,8.334 10,16.667 10,25c0,8.334 -10,16.667 -10,25c0,8.334 10,16.667 10,25c0,8.334 -10,16.667 -10,25c0,8.334 10,16.667 10,25c0,8.334 -10,16.667 -10,25c0,8.334 10,16.667 10,25c0,8.334 -10,16.667 -10,25c0,8.334 10,16.667 10,25c0,8.334 -10,16.667 -10,25c0,8.334 10,16.667 10,25c0,8.334 -10,16.667 -10,25c0,8.334 10,16.667 10,25c0,8.334 -10,16.667 -10,25c0,8.334 10,16.667 10,25c0,8.334 -10,16.667 -10,25c0,8.334 10,16.667 10,25c0,8.334 -10,16.667 -10,25c0,8.334 10,16.667 10,25c0,8.334 -10,16.667 -10,25c0,8.334 10,16.667 10,25c0,8.334 -10,16.667 -10,25c0,8.334 10,16.667 10,25c0,8.334 -10,16.667 -10,25c0,8.334 10,16.667 10,25c0,8.334 -10,16.667 -10,25c0,8.334 6.667,16.667 10,25" style="fill:none;stroke:#000;stroke-width:7px;"/><path d="M270.866,225.47c-0.179,0.31 -0.509,0.5 -0.866,0.5c-0.357,0 -0.687,-0.19 -0.866,-0.5c-1.892,-3.277 -6.376,-11.043 -8.268,-14.32c-0.179,-0.31 -0.179,-0.691 0,-1c0.179,-0.31 0.509,-0.5 0.866,-0.5c3.784,0 12.752,0 16.536,0c0.357,0 0.687,0.19 0.866,0.5c0.179,0.309 0.179,0.69 0,1c-1.892,3.277 -6.376,11.043 -8.268,14.32Z"/><path d="M292.114,-435.33c-3.333,8.334 -10,16.667 -10,25c0,8.334 10,16.667 10,25c0,8.334 -10,16.667 -10,25c0,8.334 10,16.667 10,25c0,8.334 -10,16.667 -10,25c0,8.334 10,16.667 10,25c0,8.334 -10,16.667 -10,25c0,8.334 10,16.667 10,25c0,8.334 -10,16.667 -10,25c0,8.334 10,16.667 10,25c0,8.334 -10,16.667 -10,25c0,8.334 10,16.667 10,25c0,8.334 -10,16.667 -10,25c0,8.334 10,16.667 10,25c0,8.334 -10,16.667 -10,25c0,8.334 10,16.667 10,25c0,8.334 -10,16.667 -10,25c0,8.334 10,16.667 10,25c0,8.334 -10,16.667 -10,25c0,8.334 10,16.667 10,25c0,8.334 -10,16.667 -10,25c0,8.334 10,16.667 10,25c0,8.334 -10,16.667 -10,25c0,8.334 10,16.667 10,25c0,8.334 -10,16.667 -10,25c0,8.334 10,16.667 10,25c0,8.334 -10,16.667 -10,25c0,8.334 6.667,16.667 10,25" style="fill:none;stroke:#000;stroke-width:7px;"/><path d="M290.866,275.47c-0.179,0.31 -0.509,0.5 -0.866,0.5c-0.357,0 -0.687,-0.19 -0.866,-0.5c-1.892,-3.277 -6.376,-11.043 -8.268,-14.32c-0.179,-0.31 -0.179,-0.691 0,-1c0.179,-0.31 0.509,-0.5 0.866,-0.5c3.784,0 12.752,0 16.536,0c0.357,0 0.687,0.19 0.866,0.5c0.179,0.309 0.179,0.69 0,1c-1.892,3.277 -6.376,11.043 -8.268,14.32Z"/><path d="M312.114,-535.33c-3.333,8.334 -10,16.667 -10,25c0,8.334 10,16.667 10,25c0,8.334 -10,16.667 -10,25c0,8.334 10,16.667 10,25c0,8.334 -10,16.667 -10,25c0,8.334 10,16.667 10,25c0,8.334 -10,16.667 -10,25c0,8.334 10,16.667 10,25c0,8.334 -10,16.667 -10,25c0,8.334 10,16.667 10,25c0,8.334 -10,16.667 -10,25c0,8.334 10,16.667 10,25c0,8.334 -10,16.667 -10,25c0,8.334 10,16.667 10,25c0,8.334 -10,16.667 -10,25c0,8.334 10,16.667 10,25c0,8.334 -10,16.667 -10,25c0,8.334 10,16.667 10,25c0,8.334 -10,16.667 -10,25c0,8.334 10,16.667 10,25c0,8.334 -10,16.667 -10,25c0,8.334 10,16.667 10,25c0,8.334 -10,16.667 -10,25c0,8.334 10,16.667 10,25c0,8.334 -10,16.667 -10,25c0,8.334 10,16.667 10,25c0,8.334 -10,16.667 -10,25c0,8.334 6.667,16.667 10,25" style="fill:none;stroke:#000;stroke-width:7px;"/><path d="M310.866,175.47c-0.179,0.31 -0.509,0.5 -0.866,0.5c-0.357,0 -0.687,-0.19 -0.866,-0.5c-1.892,-3.277 -6.376,-11.043 -8.268,-14.32c-0.179,-0.31 -0.179,-0.691 0,-1c0.179,-0.31 0.509,-0.5 0.866,-0.5c3.784,0 12.752,0 16.536,0c0.357,0 0.687,0.19 0.866,0.5c0.179,0.309 0.179,0.69 0,1c-1.892,3.277 -6.376,11.043 -8.268,14.32Z"/><path d="M332.114,-585.33c-3.333,8.334 -10,16.667 -10,25c0,8.334 10,16.667 10,25c0,8.334 -10,16.667 -10,25c0,8.334 10,16.667 10,25c0,8.334 -10,16.667 -10,25c0,8.334 10,16.667 10,25c0,8.334 -10,16.667 -10,25c0,8.334 10,16.667 10,25c0,8.334 -10,16.667 -10,25c0,8.334 10,16.667 10,25c0,8.334 -10,16.667 -10,25c0,8.334 10,16.667 10,25c0,8.334 -10,16.667 -10,25c0,8.334 10,16.667 10,25c0,8.334 -10,16.667 -10,25c0,8.334 10,16.667 10,25c0,8.334 -10,16.667 -10,25c0,8.334 10,16.667 10,25c0,8.334 -10,16.667 -10,25c0,8.334 10,16.667 10,25c0,8.334 -10,16.667 -10,25c0,8.334 10,16.667 10,25c0,8.334 -10,16.667 -10,25c0,8.334 10,16.667 10,25c0,8.334 -10,16.667 -10,25c0,8.334 10,16.667 10,25c0,8.334 -10,16.667 -10,25c0,8.334 6.667,16.667 10,25" style="fill:none;stroke:#000;stroke-width:7px;"/><path d="M330.866,125.47c-0.179,0.31 -0.509,0.5 -0.866,0.5c-0.357,0 -0.687,-0.19 -0.866,-0.5c-1.892,-3.277 -6.376,-11.043 -8.268,-14.32c-0.179,-0.31 -0.179,-0.691 0,-1c0.179,-0.31 0.509,-0.5 0.866,-0.5c3.784,0 12.752,0 16.536,0c0.357,0 0.687,0.19 0.866,0.5c0.179,0.309 0.179,0.69 0,1c-1.892,3.277 -6.376,11.043 -8.268,14.32Z"/><path d="M352.114,-535.33c-3.333,8.334 -10,16.667 -10,25c0,8.334 10,16.667 10,25c0,8.334 -10,16.667 -10,25c0,8.334 10,16.667 10,25c0,8.334 -10,16.667 -10,25c0,8.334 10,16.667 10,25c0,8.334 -10,16.667 -10,25c0,8.334 10,16.667 10,25c0,8.334 -10,16.667 -10,25c0,8.334 10,16.667 10,25c0,8.334 -10,16.667 -10,25c0,8.334 10,16.667 10,25c0,8.334 -10,16.667 -10,25c0,8.334 10,16.667 10,25c0,8.334 -10,16.667 -10,25c0,8.334 10,16.667 10,25c0,8.334 -10,16.667 -10,25c0,8.334 10,16.667 10,25c0,8.334 -10,16.667 -10,25c0,8.334 10,16.667 10,25c0,8.334 -10,16.667 -10,25c0,8.334 10,16.667 10,25c0,8.334 -10,16.667 -10,25c0,8.334 10,16.667 10,25c0,8.334 -10,16.667 -10,25c0,8.334 10,16.667 10,25c0,8.334 -10,16.667 -10,25c0,8.334 6.667,16.667 10,25" style="fill:none;stroke:#000;stroke-width:7px;"/><path d="M350.866,175.47c-0.179,0.31 -0.509,0.5 -0.866,0.5c-0.357,0 -0.687,-0.19 -0.866,-0.5c-1.892,-3.277 -6.376,-11.043 -8.268,-14.32c-0.179,-0.31 -0.179,-0.691 0,-1c0.179,-0.31 0.509,-0.5 0.866,-0.5c3.784,0 12.752,0 16.536,0c0.357,0 0.687,0.19 0.866,0.5c0.179,0.309 0.179,0.69 0,1c-1.892,3.277 -6.376,11.043 -8.268,14.32Z"/><path d="M372.114,-485.33c-3.333,8.334 -10,16.667 -10,25c0,8.334 10,16.667 10,25c0,8.334 -10,16.667 -10,25c0,8.334 10,16.667 10,25c0,8.334 -10,16.667 -10,25c0,8.334 10,16.667 10,25c0,8.334 -10,16.667 -10,25c0,8.334 10,16.667 10,25c0,8.334 -10,16.667 -10,25c0,8.334 10,16.667 10,25c0,8.334 -10,16.667 -10,25c0,8.334 10,16.667 10,25c0,8.334 -10,16.667 -10,25c0,8.334 10,16.667 10,25c0,8.334 -10,16.667 -10,25c0,8.334 10,16.667 10,25c0,8.334 -10,16.667 -10,25c0,8.334 10,16.667 10,25c0,8.334 -10,16.667 -10,25c0,8.334 10,16.667 10,25c0,8.334 -10,16.667 -10,25c0,8.334 10,16.667 10,25c0,8.334 -10,16.667 -10,25c0,8.334 10,16.667 10,25c0,8.334 -10,16.667 -10,25c0,8.334 10,16.667 10,25c0,8.334 -10,16.667 -10,25c0,8.334 6.667,16.667 10,25" style="fill:none;stroke:#000;stroke-width:7px;"/><path d="M370.866,225.47c-0.179,0.31 -0.509,0.5 -0.866,0.5c-0.357,0 -0.687,-0.19 -0.866,-0.5c-1.892,-3.277 -6.376,-11.043 -8.268,-14.32c-0.179,-0.31 -0.179,-0.691 0,-1c0.179,-0.31 0.509,-0.5 0.866,-0.5c3.784,0 12.752,0 16.536,0c0.357,0 0.687,0.19 0.866,0.5c0.179,0.309 0.179,0.69 0,1c-1.892,3.277 -6.376,11.043 -8.268,14.32Z"/><path d="M392.114,-435.33c-3.333,8.334 -10,16.667 -10,25c0,8.334 10,16.667 10,25c0,8.334 -10,16.667 -10,25c0,8.334 10,16.667 10,25c0,8.334 -10,16.667 -10,25c0,8.334 10,16.667 10,25c0,8.334 -10,16.667 -10,25c0,8.334 10,16.667 10,25c0,8.334 -10,16.667 -10,25c0,8.334 10,16.667 10,25c0,8.334 -10,16.667 -10,25c0,8.334 10,16.667 10,25c0,8.334 -10,16.667 -10,25c0,8.334 10,16.667 10,25c0,8.334 -10,16.667 -10,25c0,8.334 10,16.667 10,25c0,8.334 -10,16.667 -10,25c0,8.334 10,16.667 10,25c0,8.334 -10,16.667 -10,25c0,8.334 10,16.667 10,25c0,8.334 -10,16.667 -10,25c0,8.334 10,16.667 10,25c0,8.334 -10,16.667 -10,25c0,8.334 10,16.667 10,25c0,8.334 -10,16.667 -10,25c0,8.334 10,16.667 10,25c0,8.334 -10,16.667 -10,25c0,8.334 6.667,16.667 10,25" style="fill:none;stroke:#000;stroke-width:7px;"/><path d="M390.866,275.47c-0.179,0.31 -0.509,0.5 -0.866,0.5c-0.357,0 -0.687,-0.19 -0.866,-0.5c-1.892,-3.277 -6.376,-11.043 -8.268,-14.32c-0.179,-0.31 -0.179,-0.691 0,-1c0.179,-0.31 0.509,-0.5 0.866,-0.5c3.784,0 12.752,0 16.536,0c0.357,0 0.687,0.19 0.866,0.5c0.179,0.309 0.179,0.69 0,1c-1.892,3.277 -6.376,11.043 -8.268,14.32Z"/><path d="M412.114,-535.33c-3.333,8.334 -10,16.667 -10,25c0,8.334 10,16.667 10,25c0,8.334 -10,16.667 -10,25c0,8.334 10,16.667 10,25c0,8.334 -10,16.667 -10,25c0,8.334 10,16.667 10,25c0,8.334 -10,16.667 -10,25c0,8.334 10,16.667 10,25c0,8.334 -10,16.667 -10,25c0,8.334 10,16.667 10,25c0,8.334 -10,16.667 -10,25c0,8.334 10,16.667 10,25c0,8.334 -10,16.667 -10,25c0,8.334 10,16.667 10,25c0,8.334 -10,16.667 -10,25c0,8.334 10,16.667 10,25c0,8.334 -10,16.667 -10,25c0,8.334 10,16.667 10,25c0,8.334 -10,16.667 -10,25c0,8.334 10,16.667 10,25c0,8.334 -10,16.667 -10,25c0,8.334 10,16.667 10,25c0,8.334 -10,16.667 -10,25c0,8.334 10,16.667 10,25c0,8.334 -10,16.667 -10,25c0,8.334 10,16.667 10,25c0,8.334 -10,16.667 -10,25c0,8.334 6.667,16.667 10,25" style="fill:none;stroke:#000;stroke-width:7px;"/><path d="M410.866,175.47c-0.179,0.31 -0.509,0.5 -0.866,0.5c-0.357,0 -0.687,-0.19 -0.866,-0.5c-1.892,-3.277 -6.376,-11.043 -8.268,-14.32c-0.179,-0.31 -0.179,-0.691 0,-1c0.179,-0.31 0.509,-0.5 0.866,-0.5c3.784,0 12.752,0 16.536,0c0.357,0 0.687,0.19 0.866,0.5c0.179,0.309 0.179,0.69 0,1c-1.892,3.277 -6.376,11.043 -8.268,14.32Z"/><path d="M432.114,-385.33c-3.333,8.334 -10,16.667 -10,25c0,8.334 10,16.667 10,25c0,8.334 -10,16.667 -10,25c0,8.334 10,16.667 10,25c0,8.334 -10,16.667 -10,25c0,8.334 10,16.667 10,25c0,8.334 -10,16.667 -10,25c0,8.334 10,16.667 10,25c0,8.334 -10,16.667 -10,25c0,8.334 10,16.667 10,25c0,8.334 -10,16.667 -10,25c0,8.334 10,16.667 10,25c0,8.334 -10,16.667 -10,25c0,8.334 10,16.667 10,25c0,8.334 -10,16.667 -10,25c0,8.334 10,16.667 10,25c0,8.334 -10,16.667 -10,25c0,8.334 10,16.667 10,25c0,8.334 -10,16.667 -10,25c0,8.334 10,16.667 10,25c0,8.334 -10,16.667 -10,25c0,8.334 10,16.667 10,25c0,8.334 -10,16.667 -10,25c0,8.334 10,16.667 10,25c0,8.334 -10,16.667 -10,25c0,8.334 10,16.667 10,25c0,8.334 -10,16.667 -10,25c0,8.334 6.667,16.667 10,25" style="fill:none;stroke:#000;stroke-width:7px;"/><path d="M430.866,325.47c-0.179,0.31 -0.509,0.5 -0.866,0.5c-0.357,0 -0.687,-0.19 -0.866,-0.5c-1.892,-3.277 -6.376,-11.043 -8.268,-14.32c-0.179,-0.31 -0.179,-0.691 0,-1c0.179,-0.31 0.509,-0.5 0.866,-0.5c3.784,0 12.752,0 16.536,0c0.357,0 0.687,0.19 0.866,0.5c0.179,0.309 0.179,0.69 0,1c-1.892,3.277 -6.376,11.043 -8.268,14.32Z"/><path d="M452.114,-585.33c-3.333,8.334 -10,16.667 -10,25c0,8.334 10,16.667 10,25c0,8.334 -10,16.667 -10,25c0,8.334 10,16.667 10,25c0,8.334 -10,16.667 -10,25c0,8.334 10,16.667 10,25c0,8.334 -10,16.667 -10,25c0,8.334 10,16.667 10,25c0,8.334 -10,16.667 -10,25c0,8.334 10,16.667 10,25c0,8.334 -10,16.667 -10,25c0,8.334 10,16.667 10,25c0,8.334 -10,16.667 -10,25c0,8.334 10,16.667 10,25c0,8.334 -10,16.667 -10,25c0,8.334 10,16.667 10,25c0,8.334 -10,16.667 -10,25c0,8.334 10,16.667 10,25c0,8.334 -10,16.667 -10,25c0,8.334 10,16.667 10,25c0,8.334 -10,16.667 -10,25c0,8.334 10,16.667 10,25c0,8.334 -10,16.667 -10,25c0,8.334 10,16.667 10,25c0,8.334 -10,16.667 -10,25c0,8.334 10,16.667 10,25c0,8.334 -10,16.667 -10,25c0,8.334 6.667,16.667 10,25" style="fill:none;stroke:#000;stroke-width:7px;"/><path d="M450.866,125.47c-0.179,0.31 -0.509,0.5 -0.866,0.5c-0.357,0 -0.687,-0.19 -0.866,-0.5c-1.892,-3.277 -6.376,-11.043 -8.268,-14.32c-0.179,-0.31 -0.179,-0.691 0,-1c0.179,-0.31 0.509,-0.5 0.866,-0.5c3.784,0 12.752,0 16.536,0c0.357,0 0.687,0.19 0.866,0.5c0.179,0.309 0.179,0.69 0,1c-1.892,3.277 -6.376,11.043 -8.268,14.32Z"/><path d="M472.114,-435.33c-3.333,8.334 -10,16.667 -10,25c0,8.334 10,16.667 10,25c0,8.334 -10,16.667 -10,25c0,8.334 10,16.667 10,25c0,8.334 -10,16.667 -10,25c0,8.334 10,16.667 10,25c0,8.334 -10,16.667 -10,25c0,8.334 10,16.667 10,25c0,8.334 -10,16.667 -10,25c0,8.334 10,16.667 10,25c0,8.334 -10,16.667 -10,25c0,8.334 10,16.667 10,25c0,8.334 -10,16.667 -10,25c0,8.334 10,16.667 10,25c0,8.334 -10,16.667 -10,25c0,8.334 10,16.667 10,25c0,8.334 -10,16.667 -10,25c0,8.334 10,16.667 10,25c0,8.334 -10,16.667 -10,25c0,8.334 10,16.667 10,25c0,8.334 -10,16.667 -10,25c0,8.334 10,16.667 10,25c0,8.334 -10,16.667 -10,25c0,8.334 10,16.667 10,25c0,8.334 -10,16.667 -10,25c0,8.334 10,16.667 10,25c0,8.334 -10,16.667 -10,25c0,8.334 6.667,16.667 10,25" style="fill:none;stroke:#000;stroke-width:7px;"/><path d="M470.866,275.47c-0.179,0.31 -0.509,0.5 -0.866,0.5c-0.357,0 -0.687,-0.19 -0.866,-0.5c-1.892,-3.277 -6.376,-11.043 -8.268,-14.32c-0.179,-0.31 -0.179,-0.691 0,-1c0.179,-0.31 0.509,-0.5 0.866,-0.5c3.784,0 12.752,0 16.536,0c0.357,0 0.687,0.19 0.866,0.5c0.179,0.309 0.179,0.69 0,1c-1.892,3.277 -6.376,11.043 -8.268,14.32Z"/><path d="M492.114,-485.33c-3.333,8.334 -10,16.667 -10,25c0,8.334 10,16.667 10,25c0,8.334 -10,16.667 -10,25c0,8.334 10,16.667 10,25c0,8.334 -10,16.667 -10,25c0,8.334 10,16.667 10,25c0,8.334 -10,16.667 -10,25c0,8.334 10,16.667 10,25c0,8.334 -10,16.667 -10,25c0,8.334 10,16.667 10,25c0,8.334 -10,16.667 -10,25c0,8.334 10,16.667 10,25c0,8.334 -10,16.667 -10,25c0,8.334 10,16.667 10,25c0,8.334 -10,16.667 -10,25c0,8.334 10,16.667 10,25c0,8.334 -10,16.667 -10,25c0,8.334 10,16.667 10,25c0,8.334 -10,16.667 -10,25c0,8.334 10,16.667 10,25c0,8.334 -10,16.667 -10,25c0,8.334 10,16.667 10,25c0,8.334 -10,16.667 -10,25c0,8.334 10,16.667 10,25c0,8.334 -10,16.667 -10,25c0,8.334 10,16.667 10,25c0,8.334 -10,16.667 -10,25c0,8.334 6.667,16.667 10,25" style="fill:none;stroke:#000;stroke-width:7px;"/><path d="M490.866,225.47c-0.179,0.31 -0.509,0.5 -0.866,0.5c-0.357,0 -0.687,-0.19 -0.866,-0.5c-1.892,-3.277 -6.376,-11.043 -8.268,-14.32c-0.179,-0.31 -0.179,-0.691 0,-1c0.179,-0.31 0.509,-0.5 0.866,-0.5c3.784,0 12.752,0 16.536,0c0.357,0 0.687,0.19 0.866,0.5c0.179,0.309 0.179,0.69 0,1c-1.892,3.277 -6.376,11.043 -8.268,14.32Z"/><path d="M512.114,-535.33c-3.333,8.334 -10,16.667 -10,25c0,8.334 10,16.667 10,25c0,8.334 -10,16.667 -10,25c0,8.334 10,16.667 10,25c0,8.334 -10,16.667 -10,25c0,8.334 10,16.667 10,25c0,8.334 -10,16.667 -10,25c0,8.334 10,16.667 10,25c0,8.334 -10,16.667 -10,25c0,8.334 10,16.667 10,25c0,8.334 -10,16.667 -10,25c0,8.334 10,16.667 10,25c0,8.334 -10,16.667 -10,25c0,8.334 10,16.667 10,25c0,8.334 -10,16.667 -10,25c0,8.334 10,16.667 10,25c0,8.334 -10,16.667 -10,25c0,8.334 10,16.667 10,25c0,8.334 -10,16.667 -10,25c0,8.334 10,16.667 10,25c0,8.334 -10,16.667 -10,25c0,8.334 10,16.667 10,25c0,8.334 -10,16.667 -10,25c0,8.334 10,16.667 10,25c0,8.334 -10,16.667 -10,25c0,8.334 10,16.667 10,25c0,8.334 -10,16.667 -10,25c0,8.334 6.667,16.667 10,25" style="fill:none;stroke:#000;stroke-width:7px;"/><path d="M510.866,175.47c-0.179,0.31 -0.509,0.5 -0.866,0.5c-0.357,0 -0.687,-0.19 -0.866,-0.5c-1.892,-3.277 -6.376,-11.043 -8.268,-14.32c-0.179,-0.31 -0.179,-0.691 0,-1c0.179,-0.31 0.509,-0.5 0.866,-0.5c3.784,0 12.752,0 16.536,0c0.357,0 0.687,0.19 0.866,0.5c0.179,0.309 0.179,0.69 0,1c-1.892,3.277 -6.376,11.043 -8.268,14.32Z"/><path d="M532.114,-385.33c-3.333,8.334 -10,16.667 -10,25c0,8.334 10,16.667 10,25c0,8.334 -10,16.667 -10,25c0,8.334 10,16.667 10,25c0,8.334 -10,16.667 -10,25c0,8.334 10,16.667 10,25c0,8.334 -10,16.667 -10,25c0,8.334 10,16.667 10,25c0,8.334 -10,16.667 -10,25c0,8.334 10,16.667 10,25c0,8.334 -10,16.667 -10,25c0,8.334 10,16.667 10,25c0,8.334 -10,16.667 -10,25c0,8.334 10,16.667 10,25c0,8.334 -10,16.667 -10,25c0,8.334 10,16.667 10,25c0,8.334 -10,16.667 -10,25c0,8.334 10,16.667 10,25c0,8.334 -10,16.667 -10,25c0,8.334 10,16.667 10,25c0,8.334 -10,16.667 -10,25c0,8.334 10,16.667 10,25c0,8.334 -10,16.667 -10,25c0,8.334 10,16.667 10,25c0,8.334 -10,16.667 -10,25c0,8.334 10,16.667 10,25c0,8.334 -10,16.667 -10,25c0,8.334 6.667,16.667 10,25" style="fill:none;stroke:#000;stroke-width:7px;"/><path d="M530.866,325.47c-0.179,0.31 -0.509,0.5 -0.866,0.5c-0.357,0 -0.687,-0.19 -0.866,-0.5c-1.892,-3.277 -6.376,-11.043 -8.268,-14.32c-0.179,-0.31 -0.179,-0.691 0,-1c0.179,-0.31 0.509,-0.5 0.866,-0.5c3.784,0 12.752,0 16.536,0c0.357,0 0.687,0.19 0.866,0.5c0.179,0.309 0.179,0.69 0,1c-1.892,3.277 -6.376,11.043 -8.268,14.32Z"/><path d="M552.114,-435.33c-3.333,8.334 -10,16.667 -10,25c0,8.334 10,16.667 10,25c0,8.334 -10,16.667 -10,25c0,8.334 10,16.667 10,25c0,8.334 -10,16.667 -10,25c0,8.334 10,16.667 10,25c0,8.334 -10,16.667 -10,25c0,8.334 10,16.667 10,25c0,8.334 -10,16.667 -10,25c0,8.334 10,16.667 10,25c0,8.334 -10,16.667 -10,25c0,8.334 10,16.667 10,25c0,8.334 -10,16.667 -10,25c0,8.334 10,16.667 10,25c0,8.334 -10,16.667 -10,25c0,8.334 10,16.667 10,25c0,8.334 -10,16.667 -10,25c0,8.334 10,16.667 10,25c0,8.334 -10,16.667 -10,25c0,8.334 10,16.667 10,25c0,8.334 -10,16.667 -10,25c0,8.334 10,16.667 10,25c0,8.334 -10,16.667 -10,25c0,8.334 10,16.667 10,25c0,8.334 -10,16.667 -10,25c0,8.334 10,16.667 10,25c0,8.334 -10,16.667 -10,25c0,8.334 6.667,16.667 10,25" style="fill:none;stroke:#000;stroke-width:7px;"/><path d="M550.866,275.47c-0.179,0.31 -0.509,0.5 -0.866,0.5c-0.357,0 -0.687,-0.19 -0.866,-0.5c-1.892,-3.277 -6.376,-11.043 -8.268,-14.32c-0.179,-0.31 -0.179,-0.691 0,-1c0.179,-0.31 0.509,-0.5 0.866,-0.5c3.784,0 12.752,0 16.536,0c0.357,0 0.687,0.19 0.866,0.5c0.179,0.309 0.179,0.69 0,1c-1.892,3.277 -6.376,11.043 -8.268,14.32Z"/><path d="M572.114,-585.33c-3.333,8.334 -10,16.667 -10,25c0,8.334 10,16.667 10,25c0,8.334 -10,16.667 -10,25c0,8.334 10,16.667 10,25c0,8.334 -10,16.667 -10,25c0,8.334 10,16.667 10,25c0,8.334 -10,16.667 -10,25c0,8.334 10,16.667 10,25c0,8.334 -10,16.667 -10,25c0,8.334 10,16.667 10,25c0,8.334 -10,16.667 -10,25c0,8.334 10,16.667 10,25c0,8.334 -10,16.667 -10,25c0,8.334 10,16.667 10,25c0,8.334 -10,16.667 -10,25c0,8.334 10,16.667 10,25c0,8.334 -10,16.667 -10,25c0,8.334 10,16.667 10,25c0,8.334 -10,16.667 -10,25c0,8.334 10,16.667 10,25c0,8.334 -10,16.667 -10,25c0,8.334 10,16.667 10,25c0,8.334 -10,16.667 -10,25c0,8.334 10,16.667 10,25c0,8.334 -10,16.667 -10,25c0,8.334 10,16.667 10,25c0,8.334 -10,16.667 -10,25c0,8.334 6.667,16.667 10,25" style="fill:none;stroke:#000;stroke-width:7px;"/><path d="M570.866,125.47c-0.179,0.31 -0.509,0.5 -0.866,0.5c-0.357,0 -0.687,-0.19 -0.866,-0.5c-1.892,-3.277 -6.376,-11.043 -8.268,-14.32c-0.179,-0.31 -0.179,-0.691 0,-1c0.179,-0.31 0.509,-0.5 0.866,-0.5c3.784,0 12.752,0 16.536,0c0.357,0 0.687,0.19 0.866,0.5c0.179,0.309 0.179,0.69 0,1c-1.892,3.277 -6.376,11.043 -8.268,14.32Z"/><path d="M592.114,-485.33c-3.333,8.334 -10,16.667 -10,25c0,8.334 10,16.667 10,25c0,8.334 -10,16.667 -10,25c0,8.334 10,16.667 10,25c0,8.334 -10,16.667 -10,25c0,8.334 10,16.667 10,25c0,8.334 -10,16.667 -10,25c0,8.334 10,16.667 10,25c0,8.334 -10,16.667 -10,25c0,8.334 10,16.667 10,25c0,8.334 -10,16.667 -10,25c0,8.334 10,16.667 10,25c0,8.334 -10,16.667 -10,25c0,8.334 10,16.667 10,25c0,8.334 -10,16.667 -10,25c0,8.334 10,16.667 10,25c0,8.334 -10,16.667 -10,25c0,8.334 10,16.667 10,25c0,8.334 -10,16.667 -10,25c0,8.334 10,16.667 10,25c0,8.334 -10,16.667 -10,25c0,8.334 10,16.667 10,25c0,8.334 -10,16.667 -10,25c0,8.334 10,16.667 10,25c0,8.334 -10,16.667 -10,25c0,8.334 10,16.667 10,25c0,8.334 -10,16.667 -10,25c0,8.334 6.667,16.667 10,25" style="fill:none;stroke:#000;stroke-width:7px;"/><path d="M590.866,225.47c-0.179,0.31 -0.509,0.5 -0.866,0.5c-0.357,0 -0.687,-0.19 -0.866,-0.5c-1.892,-3.277 -6.376,-11.043 -8.268,-14.32c-0.179,-0.31 -0.179,-0.691 0,-1c0.179,-0.31 0.509,-0.5 0.866,-0.5c3.784,0 12.752,0 16.536,0c0.357,0 0.687,0.19 0.866,0.5c0.179,0.309 0.179,0.69 0,1c-1.892,3.277 -6.376,11.043 -8.268,14.32Z"/><path d="M612.114,-435.33c-3.333,8.334 -10,16.667 -10,25c0,8.334 10,16.667 10,25c0,8.334 -10,16.667 -10,25c0,8.334 10,16.667 10,25c0,8.334 -10,16.667 -10,25c0,8.334 10,16.667 10,25c0,8.334 -10,16.667 -10,25c0,8.334 10,16.667 10,25c0,8.334 -10,16.667 -10,25c0,8.334 10,16.667 10,25c0,8.334 -10,16.667 -10,25c0,8.334 10,16.667 10,25c0,8.334 -10,16.667 -10,25c0,8.334 10,16.667 10,25c0,8.334 -10,16.667 -10,25c0,8.334 10,16.667 10,25c0,8.334 -10,16.667 -10,25c0,8.334 10,16.667 10,25c0,8.334 -10,16.667 -10,25c0,8.334 10,16.667 10,25c0,8.334 -10,16.667 -10,25c0,8.334 10,16.667 10,25c0,8.334 -10,16.667 -10,25c0,8.334 10,16.667 10,25c0,8.334 -10,16.667 -10,25c0,8.334 10,16.667 10,25c0,8.334 -10,16.667 -10,25c0,8.334 6.667,16.667 10,25" style="fill:none;stroke:#000;stroke-width:7px;"/><path d="M610.866,275.47c-0.179,0.31 -0.509,0.5 -0.866,0.5c-0.357,0 -0.687,-0.19 -0.866,-0.5c-1.892,-3.277 -6.376,-11.043 -8.268,-14.32c-0.179,-0.31 -0.179,-0.691 0,-1c0.179,-0.31 0.509,-0.5 0.866,-0.5c3.784,0 12.752,0 16.536,0c0.357,0 0.687,0.19 0.866,0.5c0.179,0.309 0.179,0.69 0,1c-1.892,3.277 -6.376,11.043 -8.268,14.32Z"/><path d="M632.114,-535.33c-3.333,8.334 -10,16.667 -10,25c0,8.334 10,16.667 10,25c0,8.334 -10,16.667 -10,25c0,8.334 10,16.667 10,25c0,8.334 -10,16.667 -10,25c0,8.334 10,16.667 10,25c0,8.334 -10,16.667 -10,25c0,8.334 10,16.667 10,25c0,8.334 -10,16.667 -10,25c0,8.334 10,16.667 10,25c0,8.334 -10,16.667 -10,25c0,8.334 10,16.667 10,25c0,8.334 -10,16.667 -10,25c0,8.334 10,16.667 10,25c0,8.334 -10,16.667 -10,25c0,8.334 10,16.667 10,25c0,8.334 -10,16.667 -10,25c0,8.334 10,16.667 10,25c0,8.334 -10,16.667 -10,25c0,8.334 10,16.667 10,25c0,8.334 -10,16.667 -10,25c0,8.334 10,16.667 10,25c0,8.334 -10,16.667 -10,25c0,8.334 10,16.667 10,25c0,8.334 -10,16.667 -10,25c0,8.334 10,16.667 10,25c0,8.334 -10,16.667 -10,25c0,8.334 6.667,16.667 10,25" style="fill:none;stroke:#000;stroke-width:7px;"/><path d="M630.866,175.47c-0.179,0.31 -0.509,0.5 -0.866,0.5c-0.357,0 -0.687,-0.19 -0.866,-0.5c-1.892,-3.277 -6.376,-11.043 -8.268,-14.32c-0.179,-0.31 -0.179,-0.691 0,-1c0.179,-0.31 0.509,-0.5 0.866,-0.5c3.784,0 12.752,0 16.536,0c0.357,0 0.687,0.19 0.866,0.5c0.179,0.309 0.179,0.69 0,1c-1.892,3.277 -6.376,11.043 -8.268,14.32Z"/><path d="M652.114,-585.33c-3.333,8.334 -10,16.667 -10,25c0,8.334 10,16.667 10,25c0,8.334 -10,16.667 -10,25c0,8.334 10,16.667 10,25c0,8.334 -10,16.667 -10,25c0,8.334 10,16.667 10,25c0,8.334 -10,16.667 -10,25c0,8.334 10,16.667 10,25c0,8.334 -10,16.667 -10,25c0,8.334 10,16.667 10,25c0,8.334 -10,16.667 -10,25c0,8.334 10,16.667 10,25c0,8.334 -10,16.667 -10,25c0,8.334 10,16.667 10,25c0,8.334 -10,16.667 -10,25c0,8.334 10,16.667 10,25c0,8.334 -10,16.667 -10,25c0,8.334 10,16.667 10,25c0,8.334 -10,16.667 -10,25c0,8.334 10,16.667 10,25c0,8.334 -10,16.667 -10,25c0,8.334 10,16.667 10,25c0,8.334 -10,16.667 -10,25c0,8.334 10,16.667 10,25c0,8.334 -10,16.667 -10,25c0,8.334 10,16.667 10,25c0,8.334 -10,16.667 -10,25c0,8.334 6.667,16.667 10,25" style="fill:none;stroke:#000;stroke-width:7px;"/><path d="M650.866,125.47c-0.179,0.31 -0.509,0.5 -0.866,0.5c-0.357,0 -0.687,-0.19 -0.866,-0.5c-1.892,-3.277 -6.376,-11.043 -8.268,-14.32c-0.179,-0.31 -0.179,-0.691 0,-1c0.179,-0.31 0.509,-0.5 0.866,-0.5c3.784,0 12.752,0 16.536,0c0.357,0 0.687,0.19 0.866,0.5c0.179,0.309 0.179,0.69 0,1c-1.892,3.277 -6.376,11.043 -8.268,14.32Z"/><path d="M672.114,-535.33c-3.333,8.334 -10,16.667 -10,25c0,8.334 10,16.667 10,25c0,8.334 -10,16.667 -10,25c0,8.334 10,16.667 10,25c0,8.334 -10,16.667 -10,25c0,8.334 10,16.667 10,25c0,8.334 -10,16.667 -10,25c0,8.334 10,16.667 10,25c0,8.334 -10,16.667 -10,25c0,8.334 10,16.667 10,25c0,8.334 -10,16.667 -10,25c0,8.334 10,16.667 10,25c0,8.334 -10,16.667 -10,25c0,8.334 10,16.667 10,25c0,8.334 -10,16.667 -10,25c0,8.334 10,16.667 10,25c0,8.334 -10,16.667 -10,25c0,8.334 10,16.667 10,25c0,8.334 -10,16.667 -10,25c0,8.334 10,16.667 10,25c0,8.334 -10,16.667 -10,25c0,8.334 10,16.667 10,25c0,8.334 -10,16.667 -10,25c0,8.334 10,16.667 10,25c0,8.334 -10,16.667 -10,25c0,8.334 10,16.667 10,25c0,8.334 -10,16.667 -10,25c0,8.334 6.667,16.667 10,25" style="fill:none;stroke:#000;stroke-width:7px;"/><path d="M670.866,175.47c-0.179,0.31 -0.509,0.5 -0.866,0.5c-0.357,0 -0.687,-0.19 -0.866,-0.5c-1.892,-3.277 -6.376,-11.043 -8.268,-14.32c-0.179,-0.31 -0.179,-0.691 0,-1c0.179,-0.31 0.509,-0.5 0.866,-0.5c3.784,0 12.752,0 16.536,0c0.357,0 0.687,0.19 0.866,0.5c0.179,0.309 0.179,0.69 0,1c-1.892,3.277 -6.376,11.043 -8.268,14.32Z"/><path d="M692.114,-485.33c-3.333,8.334 -10,16.667 -10,25c0,8.334 10,16.667 10,25c0,8.334 -10,16.667 -10,25c0,8.334 10,16.667 10,25c0,8.334 -10,16.667 -10,25c0,8.334 10,16.667 10,25c0,8.334 -10,16.667 -10,25c0,8.334 10,16.667 10,25c0,8.334 -10,16.667 -10,25c0,8.334 10,16.667 10,25c0,8.334 -10,16.667 -10,25c0,8.334 10,16.667 10,25c0,8.334 -10,16.667 -10,25c0,8.334 10,16.667 10,25c0,8.334 -10,16.667 -10,25c0,8.334 10,16.667 10,25c0,8.334 -10,16.667 -10,25c0,8.334 10,16.667 10,25c0,8.334 -10,16.667 -10,25c0,8.334 10,16.667 10,25c0,8.334 -10,16.667 -10,25c0,8.334 10,16.667 10,25c0,8.334 -10,16.667 -10,25c0,8.334 10,16.667 10,25c0,8.334 -10,16.667 -10,25c0,8.334 10,16.667 10,25c0,8.334 -10,16.667 -10,25c0,8.334 6.667,16.667 10,25" style="fill:none;stroke:#000;stroke-width:7px;"/><path d="M690.866,225.47c-0.179,0.31 -0.509,0.5 -0.866,0.5c-0.357,0 -0.687,-0.19 -0.866,-0.5c-1.892,-3.277 -6.376,-11.043 -8.268,-14.32c-0.179,-0.31 -0.179,-0.691 0,-1c0.179,-0.31 0.509,-0.5 0.866,-0.5c3.784,0 12.752,0 16.536,0c0.357,0 0.687,0.19 0.866,0.5c0.179,0.309 0.179,0.69 0,1c-1.892,3.277 -6.376,11.043 -8.268,14.32Z"/><path d="M712.114,-435.33c-3.333,8.334 -10,16.667 -10,25c0,8.334 10,16.667 10,25c0,8.334 -10,16.667 -10,25c0,8.334 10,16.667 10,25c0,8.334 -10,16.667 -10,25c0,8.334 10,16.667 10,25c0,8.334 -10,16.667 -10,25c0,8.334 10,16.667 10,25c0,8.334 -10,16.667 -10,25c0,8.334 10,16.667 10,25c0,8.334 -10,16.667 -10,25c0,8.334 10,16.667 10,25c0,8.334 -10,16.667 -10,25c0,8.334 10,16.667 10,25c0,8.334 -10,16.667 -10,25c0,8.334 10,16.667 10,25c0,8.334 -10,16.667 -10,25c0,8.334 10,16.667 10,25c0,8.334 -10,16.667 -10,25c0,8.334 10,16.667 10,25c0,8.334 -10,16.667 -10,25c0,8.334 10,16.667 10,25c0,8.334 -10,16.667 -10,25c0,8.334 10,16.667 10,25c0,8.334 -10,16.667 -10,25c0,8.334 10,16.667 10,25c0,8.334 -10,16.667 -10,25c0,8.334 6.667,16.667 10,25" style="fill:none;stroke:#000;stroke-width:7px;"/><path d="M710.866,275.47c-0.179,0.31 -0.509,0.5 -0.866,0.5c-0.357,0 -0.687,-0.19 -0.866,-0.5c-1.892,-3.277 -6.376,-11.043 -8.268,-14.32c-0.179,-0.31 -0.179,-0.691 0,-1c0.179,-0.31 0.509,-0.5 0.866,-0.5c3.784,0 12.752,0 16.536,0c0.357,0 0.687,0.19 0.866,0.5c0.179,0.309 0.179,0.69 0,1c-1.892,3.277 -6.376,11.043 -8.268,14.32Z"/><path d="M732.114,-535.33c-3.333,8.334 -10,16.667 -10,25c0,8.334 10,16.667 10,25c0,8.334 -10,16.667 -10,25c0,8.334 10,16.667 10,25c0,8.334 -10,16.667 -10,25c0,8.334 10,16.667 10,25c0,8.334 -10,16.667 -10,25c0,8.334 10,16.667 10,25c0,8.334 -10,16.667 -10,25c0,8.334 10,16.667 10,25c0,8.334 -10,16.667 -10,25c0,8.334 10,16.667 10,25c0,8.334 -10,16.667 -10,25c0,8.334 10,16.667 10,25c0,8.334 -10,16.667 -10,25c0,8.334 10,16.667 10,25c0,8.334 -10,16.667 -10,25c0,8.334 10,16.667 10,25c0,8.334 -10,16.667 -10,25c0,8.334 10,16.667 10,25c0,8.334 -10,16.667 -10,25c0,8.334 10,16.667 10,25c0,8.334 -10,16.667 -10,25c0,8.334 10,16.667 10,25c0,8.334 -10,16.667 -10,25c0,8.334 10,16.667 10,25c0,8.334 -10,16.667 -10,25c0,8.334 6.667,16.667 10,25" style="fill:none;stroke:#000;stroke-width:7px;"/><path d="M730.866,175.47c-0.179,0.31 -0.509,0.5 -0.866,0.5c-0.357,0 -0.687,-0.19 -0.866,-0.5c-1.892,-3.277 -6.376,-11.043 -8.268,-14.32c-0.179,-0.31 -0.179,-0.691 0,-1c0.179,-0.31 0.509,-0.5 0.866,-0.5c3.784,0 12.752,0 16.536,0c0.357,0 0.687,0.19 0.866,0.5c0.179,0.309 0.179,0.69 0,1c-1.892,3.277 -6.376,11.043 -8.268,14.32Z"/><path d="M752.114,-385.33c-3.333,8.334 -10,16.667 -10,25c0,8.334 10,16.667 10,25c0,8.334 -10,16.667 -10,25c0,8.334 10,16.667 10,25c0,8.334 -10,16.667 -10,25c0,8.334 10,16.667 10,25c0,8.334 -10,16.667 -10,25c0,8.334 10,16.667 10,25c0,8.334 -10,16.667 -10,25c0,8.334 10,16.667 10,25c0,8.334 -10,16.667 -10,25c0,8.334 10,16.667 10,25c0,8.334 -10,16.667 -10,25c0,8.334 10,16.667 10,25c0,8.334 -10,16.667 -10,25c0,8.334 10,16.667 10,25c0,8.334 -10,16.667 -10,25c0,8.334 10,16.667 10,25c0,8.334 -10,16.667 -10,25c0,8.334 10,16.667 10,25c0,8.334 -10,16.667 -10,25c0,8.334 10,16.667 10,25c0,8.334 -10,16.667 -10,25c0,8.334 10,16.667 10,25c0,8.334 -10,16.667 -10,25c0,8.334 10,16.667 10,25c0,8.334 -10,16.667 -10,25c0,8.334 6.667,16.667 10,25" style="fill:none;stroke:#000;stroke-width:7px;"/><path d="M750.866,325.47c-0.179,0.31 -0.509,0.5 -0.866,0.5c-0.357,0 -0.687,-0.19 -0.866,-0.5c-1.892,-3.277 -6.376,-11.043 -8.268,-14.32c-0.179,-0.31 -0.179,-0.691 0,-1c0.179,-0.31 0.509,-0.5 0.866,-0.5c3.784,0 12.752,0 16.536,0c0.357,0 0.687,0.19 0.866,0.5c0.179,0.309 0.179,0.69 0,1c-1.892,3.277 -6.376,11.043 -8.268,14.32Z"/><path d="M772.114,-585.33c-3.333,8.334 -10,16.667 -10,25c0,8.334 10,16.667 10,25c0,8.334 -10,16.667 -10,25c0,8.334 10,16.667 10,25c0,8.334 -10,16.667 -10,25c0,8.334 10,16.667 10,25c0,8.334 -10,16.667 -10,25c0,8.334 10,16.667 10,25c0,8.334 -10,16.667 -10,25c0,8.334 10,16.667 10,25c0,8.334 -10,16.667 -10,25c0,8.334 10,16.667 10,25c0,8.334 -10,16.667 -10,25c0,8.334 10,16.667 10,25c0,8.334 -10,16.667 -10,25c0,8.334 10,16.667 10,25c0,8.334 -10,16.667 -10,25c0,8.334 10,16.667 10,25c0,8.334 -10,16.667 -10,25c0,8.334 10,16.667 10,25c0,8.334 -10,16.667 -10,25c0,8.334 10,16.667 10,25c0,8.334 -10,16.667 -10,25c0,8.334 10,16.667 10,25c0,8.334 -10,16.667 -10,25c0,8.334 10,16.667 10,25c0,8.334 -10,16.667 -10,25c0,8.334 6.667,16.667 10,25" style="fill:none;stroke:#000;stroke-width:7px;"/><path d="M770.866,125.47c-0.179,0.31 -0.509,0.5 -0.866,0.5c-0.357,0 -0.687,-0.19 -0.866,-0.5c-1.892,-3.277 -6.376,-11.043 -8.268,-14.32c-0.179,-0.31 -0.179,-0.691 0,-1c0.179,-0.31 0.509,-0.5 0.866,-0.5c3.784,0 12.752,0 16.536,0c0.357,0 0.687,0.19 0.866,0.5c0.179,0.309 0.179,0.69 0,1c-1.892,3.277 -6.376,11.043 -8.268,14.32Z"/><path d="M792.114,-435.33c-3.333,8.334 -10,16.667 -10,25c0,8.334 10,16.667 10,25c0,8.334 -10,16.667 -10,25c0,8.334 10,16.667 10,25c0,8.334 -10,16.667 -10,25c0,8.334 10,16.667 10,25c0,8.334 -10,16.667 -10,25c0,8.334 10,16.667 10,25c0,8.334 -10,16.667 -10,25c0,8.334 10,16.667 10,25c0,8.334 -10,16.667 -10,25c0,8.334 10,16.667 10,25c0,8.334 -10,16.667 -10,25c0,8.334 10,16.667 10,25c0,8.334 -10,16.667 -10,25c0,8.334 10,16.667 10,25c0,8.334 -10,16.667 -10,25c0,8.334 10,16.667 10,25c0,8.334 -10,16.667 -10,25c0,8.334 10,16.667 10,25c0,8.334 -10,16.667 -10,25c0,8.334 10,16.667 10,25c0,8.334 -10,16.667 -10,25c0,8.334 10,16.667 10,25c0,8.334 -10,16.667 -10,25c0,8.334 10,16.667 10,25c0,8.334 -10,16.667 -10,25c0,8.334 6.667,16.667 10,25" style="fill:none;stroke:#000;stroke-width:7px;"/><path d="M790.866,275.47c-0.179,0.31 -0.509,0.5 -0.866,0.5c-0.357,0 -0.687,-0.19 -0.866,-0.5c-1.892,-3.277 -6.376,-11.043 -8.268,-14.32c-0.179,-0.31 -0.179,-0.691 0,-1c0.179,-0.31 0.509,-0.5 0.866,-0.5c3.784,0 12.752,0 16.536,0c0.357,0 0.687,0.19 0.866,0.5c0.179,0.309 0.179,0.69 0,1c-1.892,3.277 -6.376,11.043 -8.268,14.32Z"/><path d="M812.114,-485.33c-3.333,8.334 -10,16.667 -10,25c0,8.334 10,16.667 10,25c0,8.334 -10,16.667 -10,25c0,8.334 10,16.667 10,25c0,8.334 -10,16.667 -10,25c0,8.334 10,16.667 10,25c0,8.334 -10,16.667 -10,25c0,8.334 10,16.667 10,25c0,8.334 -10,16.667 -10,25c0,8.334 10,16.667 10,25c0,8.334 -10,16.667 -10,25c0,8.334 10,16.667 10,25c0,8.334 -10,16.667 -10,25c0,8.334 10,16.667 10,25c0,8.334 -10,16.667 -10,25c0,8.334 10,16.667 10,25c0,8.334 -10,16.667 -10,25c0,8.334 10,16.667 10,25c0,8.334 -10,16.667 -10,25c0,8.334 10,16.667 10,25c0,8.334 -10,16.667 -10,25c0,8.334 10,16.667 10,25c0,8.334 -10,16.667 -10,25c0,8.334 10,16.667 10,25c0,8.334 -10,16.667 -10,25c0,8.334 10,16.667 10,25c0,8.334 -10,16.667 -10,25c0,8.334 6.667,16.667 10,25" style="fill:none;stroke:#000;stroke-width:7px;"/><path d="M810.866,225.47c-0.179,0.31 -0.509,0.5 -0.866,0.5c-0.357,0 -0.687,-0.19 -0.866,-0.5c-1.892,-3.277 -6.376,-11.043 -8.268,-14.32c-0.179,-0.31 -0.179,-0.691 0,-1c0.179,-0.31 0.509,-0.5 0.866,-0.5c3.784,0 12.752,0 16.536,0c0.357,0 0.687,0.19 0.866,0.5c0.179,0.309 0.179,0.69 0,1c-1.892,3.277 -6.376,11.043 -8.268,14.32Z"/><path d="M832.114,-535.33c-3.333,8.334 -10,16.667 -10,25c0,8.334 10,16.667 10,25c0,8.334 -10,16.667 -10,25c0,8.334 10,16.667 10,25c0,8.334 -10,16.667 -10,25c0,8.334 10,16.667 10,25c0,8.334 -10,16.667 -10,25c0,8.334 10,16.667 10,25c0,8.334 -10,16.667 -10,25c0,8.334 10,16.667 10,25c0,8.334 -10,16.667 -10,25c0,8.334 10,16.667 10,25c0,8.334 -10,16.667 -10,25c0,8.334 10,16.667 10,25c0,8.334 -10,16.667 -10,25c0,8.334 10,16.667 10,25c0,8.334 -10,16.667 -10,25c0,8.334 10,16.667 10,25c0,8.334 -10,16.667 -10,25c0,8.334 10,16.667 10,25c0,8.334 -10,16.667 -10,25c0,8.334 10,16.667 10,25c0,8.334 -10,16.667 -10,25c0,8.334 10,16.667 10,25c0,8.334 -10,16.667 -10,25c0,8.334 10,16.667 10,25c0,8.334 -10,16.667 -10,25c0,8.334 6.667,16.667 10,25" style="fill:none;stroke:#000;stroke-width:7px;"/><path d="M830.866,175.47c-0.179,0.31 -0.509,0.5 -0.866,0.5c-0.357,0 -0.687,-0.19 -0.866,-0.5c-1.892,-3.277 -6.376,-11.043 -8.268,-14.32c-0.179,-0.31 -0.179,-0.691 0,-1c0.179,-0.31 0.509,-0.5 0.866,-0.5c3.784,0 12.752,0 16.536,0c0.357,0 0.687,0.19 0.866,0.5c0.179,0.309 0.179,0.69 0,1c-1.892,3.277 -6.376,11.043 -8.268,14.32Z"/><path d="M852.114,-385.33c-3.333,8.334 -10,16.667 -10,25c0,8.334 10,16.667 10,25c0,8.334 -10,16.667 -10,25c0,8.334 10,16.667 10,25c0,8.334 -10,16.667 -10,25c0,8.334 10,16.667 10,25c0,8.334 -10,16.667 -10,25c0,8.334 10,16.667 10,25c0,8.334 -10,16.667 -10,25c0,8.334 10,16.667 10,25c0,8.334 -10,16.667 -10,25c0,8.334 10,16.667 10,25c0,8.334 -10,16.667 -10,25c0,8.334 10,16.667 10,25c0,8.334 -10,16.667 -10,25c0,8.334 10,16.667 10,25c0,8.334 -10,16.667 -10,25c0,8.334 10,16.667 10,25c0,8.334 -10,16.667 -10,25c0,8.334 10,16.667 10,25c0,8.334 -10,16.667 -10,25c0,8.334 10,16.667 10,25c0,8.334 -10,16.667 -10,25c0,8.334 10,16.667 10,25c0,8.334 -10,16.667 -10,25c0,8.334 10,16.667 10,25c0,8.334 -10,16.667 -10,25c0,8.334 6.667,16.667 10,25" style="fill:none;stroke:#000;stroke-width:7px;"/><path d="M850.866,325.47c-0.179,0.31 -0.509,0.5 -0.866,0.5c-0.357,0 -0.687,-0.19 -0.866,-0.5c-1.892,-3.277 -6.376,-11.043 -8.268,-14.32c-0.179,-0.31 -0.179,-0.691 0,-1c0.179,-0.31 0.509,-0.5 0.866,-0.5c3.784,0 12.752,0 16.536,0c0.357,0 0.687,0.19 0.866,0.5c0.179,0.309 0.179,0.69 0,1c-1.892,3.277 -6.376,11.043 -8.268,14.32Z"/><path d="M872.114,-435.33c-3.333,8.334 -10,16.667 -10,25c0,8.334 10,16.667 10,25c0,8.334 -10,16.667 -10,25c0,8.334 10,16.667 10,25c0,8.334 -10,16.667 -10,25c0,8.334 10,16.667 10,25c0,8.334 -10,16.667 -10,25c0,8.334 10,16.667 10,25c0,8.334 -10,16.667 -10,25c0,8.334 10,16.667 10,25c0,8.334 -10,16.667 -10,25c0,8.334 10,16.667 10,25c0,8.334 -10,16.667 -10,25c0,8.334 10,16.667 10,25c0,8.334 -10,16.667 -10,25c0,8.334 10,16.667 10,25c0,8.334 -10,16.667 -10,25c0,8.334 10,16.667 10,25c0,8.334 -10,16.667 -10,25c0,8.334 10,16.667 10,25c0,8.334 -10,16.667 -10,25c0,8.334 10,16.667 10,25c0,8.334 -10,16.667 -10,25c0,8.334 10,16.667 10,25c0,8.334 -10,16.667 -10,25c0,8.334 10,16.667 10,25c0,8.334 -10,16.667 -10,25c0,8.334 6.667,16.667 10,25" style="fill:none;stroke:#000;stroke-width:7px;"/><path d="M870.866,275.47c-0.179,0.31 -0.509,0.5 -0.866,0.5c-0.357,0 -0.687,-0.19 -0.866,-0.5c-1.892,-3.277 -6.376,-11.043 -8.268,-14.32c-0.179,-0.31 -0.179,-0.691 0,-1c0.179,-0.31 0.509,-0.5 0.866,-0.5c3.784,0 12.752,0 16.536,0c0.357,0 0.687,0.19 0.866,0.5c0.179,0.309 0.179,0.69 0,1c-1.892,3.277 -6.376,11.043 -8.268,14.32Z"/><path d="M892.114,-585.33c-3.333,8.334 -10,16.667 -10,25c0,8.334 10,16.667 10,25c0,8.334 -10,16.667 -10,25c0,8.334 10,16.667 10,25c0,8.334 -10,16.667 -10,25c0,8.334 10,16.667 10,25c0,8.334 -10,16.667 -10,25c0,8.334 10,16.667 10,25c0,8.334 -10,16.667 -10,25c0,8.334 10,16.667 10,25c0,8.334 -10,16.667 -10,25c0,8.334 10,16.667 10,25c0,8.334 -10,16.667 -10,25c0,8.334 10,16.667 10,25c0,8.334 -10,16.667 -10,25c0,8.334 10,16.667 10,25c0,8.334 -10,16.667 -10,25c0,8.334 10,16.667 10,25c0,8.334 -10,16.667 -10,25c0,8.334 10,16.667 10,25c0,8.334 -10,16.667 -10,25c0,8.334 10,16.667 10,25c0,8.334 -10,16.667 -10,25c0,8.334 10,16.667 10,25c0,8.334 -10,16.667 -10,25c0,8.334 10,16.667 10,25c0,8.334 -10,16.667 -10,25c0,8.334 6.667,16.667 10,25" style="fill:none;stroke:#000;stroke-width:7px;"/><path d="M890.866,125.47c-0.179,0.31 -0.509,0.5 -0.866,0.5c-0.357,0 -0.687,-0.19 -0.866,-0.5c-1.892,-3.277 -6.376,-11.043 -8.268,-14.32c-0.179,-0.31 -0.179,-0.691 0,-1c0.179,-0.31 0.509,-0.5 0.866,-0.5c3.784,0 12.752,0 16.536,0c0.357,0 0.687,0.19 0.866,0.5c0.179,0.309 0.179,0.69 0,1c-1.892,3.277 -6.376,11.043 -8.268,14.32Z"/><path d="M912.114,-485.33c-3.333,8.334 -10,16.667 -10,25c0,8.334 10,16.667 10,25c0,8.334 -10,16.667 -10,25c0,8.334 10,16.667 10,25c0,8.334 -10,16.667 -10,25c0,8.334 10,16.667 10,25c0,8.334 -10,16.667 -10,25c0,8.334 10,16.667 10,25c0,8.334 -10,16.667 -10,25c0,8.334 10,16.667 10,25c0,8.334 -10,16.667 -10,25c0,8.334 10,16.667 10,25c0,8.334 -10,16.667 -10,25c0,8.334 10,16.667 10,25c0,8.334 -10,16.667 -10,25c0,8.334 10,16.667 10,25c0,8.334 -10,16.667 -10,25c0,8.334 10,16.667 10,25c0,8.334 -10,16.667 -10,25c0,8.334 10,16.667 10,25c0,8.334 -10,16.667 -10,25c0,8.334 10,16.667 10,25c0,8.334 -10,16.667 -10,25c0,8.334 10,16.667 10,25c0,8.334 -10,16.667 -10,25c0,8.334 10,16.667 10,25c0,8.334 -10,16.667 -10,25c0,8.334 6.667,16.667 10,25" style="fill:none;stroke:#000;stroke-width:7px;"/><path d="M910.866,225.47c-0.179,0.31 -0.509,0.5 -0.866,0.5c-0.357,0 -0.687,-0.19 -0.866,-0.5c-1.892,-3.277 -6.376,-11.043 -8.268,-14.32c-0.179,-0.31 -0.179,-0.691 0,-1c0.179,-0.31 0.509,-0.5 0.866,-0.5c3.784,0 12.752,0 16.536,0c0.357,0 0.687,0.19 0.866,0.5c0.179,0.309 0.179,0.69 0,1c-1.892,3.277 -6.376,11.043 -8.268,14.32Z"/><path d="M932.114,-435.33c-3.333,8.334 -10,16.667 -10,25c0,8.334 10,16.667 10,25c0,8.334 -10,16.667 -10,25c0,8.334 10,16.667 10,25c0,8.334 -10,16.667 -10,25c0,8.334 10,16.667 10,25c0,8.334 -10,16.667 -10,25c0,8.334 10,16.667 10,25c0,8.334 -10,16.667 -10,25c0,8.334 10,16.667 10,25c0,8.334 -10,16.667 -10,25c0,8.334 10,16.667 10,25c0,8.334 -10,16.667 -10,25c0,8.334 10,16.667 10,25c0,8.334 -10,16.667 -10,25c0,8.334 10,16.667 10,25c0,8.334 -10,16.667 -10,25c0,8.334 10,16.667 10,25c0,8.334 -10,16.667 -10,25c0,8.334 10,16.667 10,25c0,8.334 -10,16.667 -10,25c0,8.334 10,16.667 10,25c0,8.334 -10,16.667 -10,25c0,8.334 10,16.667 10,25c0,8.334 -10,16.667 -10,25c0,8.334 10,16.667 10,25c0,8.334 -10,16.667 -10,25c0,8.334 6.667,16.667 10,25" style="fill:none;stroke:#000;stroke-width:7px;"/><path d="M930.866,275.47c-0.179,0.31 -0.509,0.5 -0.866,0.5c-0.357,0 -0.687,-0.19 -0.866,-0.5c-1.892,-3.277 -6.376,-11.043 -8.268,-14.32c-0.179,-0.31 -0.179,-0.691 0,-1c0.179,-0.31 0.509,-0.5 0.866,-0.5c3.784,0 12.752,0 16.536,0c0.357,0 0.687,0.19 0.866,0.5c0.179,0.309 0.179,0.69 0,1c-1.892,3.277 -6.376,11.043 -8.268,14.32Z"/></g></g></svg>