<?xml version="1.0" encoding="UTF-8" standalone="no"?>
<!DOCTYPE svg PUBLIC "-//W3C//DTD SVG 1.1//EN" "http://www.w3.org/Graphics/SVG/1.1/DTD/svg11.dtd">
<svg width="100%" height="100%" viewBox="0 0 480 320" version="1.1" xmlns="http://www.w3.org/2000/svg" xmlns:xlink="http://www.w3.org/1999/xlink" xml:space="preserve" style="fill-rule:evenodd;clip-rule:evenodd;stroke-linejoin:round;stroke-miterlimit:1.41421;">
    <g id="Artboard1" transform="matrix(1,0,0,0.880353,0,0)">
        <rect x="0" y="0" width="480" height="363.491" style="fill:none;"/>
        <clipPath id="_clip1">
            <rect x="0" y="0" width="480" height="363.491"/>
        </clipPath>
        <g clip-path="url(#_clip1)">
            <g>
                <g opacity="0.304348">
                    <g transform="matrix(3.29887e-17,0.632957,-0.899048,6.46775e-17,157.544,-23.3559)">
                        <path d="M67.758,135.216L67.758,94.147L222.375,94.147L222.375,73.613L288.638,114.682L222.375,155.751L222.375,135.216L67.758,135.216Z" style="fill:white;"/>
                    </g>
                    <g transform="matrix(4.41446e-17,0.847007,-0.899048,6.46775e-17,231.39,-37.8596)">
                        <path d="M67.758,135.216L67.758,94.147L239.121,94.147L239.121,73.613L288.638,114.682L239.121,155.751L239.121,135.216L67.758,135.216Z" style="fill:white;"/>
                    </g>
                    <g transform="matrix(5.52549e-17,1.06018,-0.899048,6.46775e-17,305.236,-52.304)">
                        <path d="M67.758,135.216L67.758,94.147L249.077,94.147L249.077,73.613L288.638,114.682L249.077,155.751L249.077,135.216L67.758,135.216Z" style="fill:white;"/>
                    </g>
                    <g transform="matrix(6.27627e-17,1.20423,-0.899048,6.46775e-17,379.082,-62.0647)">
                        <path d="M67.758,135.216L67.758,94.147L253.81,94.147L253.81,73.613L288.638,114.682L253.81,155.751L253.81,135.216L67.758,135.216Z" style="fill:white;"/>
                    </g>
                    <g transform="matrix(5.52549e-17,1.06018,-0.899048,6.46775e-17,452.929,-52.304)">
                        <path d="M67.758,135.216L67.758,94.147L249.077,94.147L249.077,73.613L288.638,114.682L249.077,155.751L249.077,135.216L67.758,135.216Z" style="fill:white;"/>
                    </g>
                    <g transform="matrix(4.13157e-17,0.792728,-0.899048,6.46775e-17,526.775,-16.7784)">
                        <path d="M67.758,135.216L67.758,94.147L235.73,94.147L235.73,73.613L288.638,114.682L235.73,155.751L235.73,135.216L67.758,135.216Z" style="fill:white;"/>
                    </g>
                    <g transform="matrix(8.88368e-17,1.70452,-0.899048,6.46775e-17,194.655,-238.284)">
                        <path d="M67.758,135.216L67.758,94.147L264.032,94.147L264.032,73.613L288.638,114.682L264.032,155.751L264.032,135.216L67.758,135.216Z" style="fill:rgb(128,128,128);"/>
                    </g>
                    <g transform="matrix(6.68384e-17,1.28243,-0.899048,6.46775e-17,268.501,-209.684)">
                        <path d="M67.758,135.216L67.758,94.147L255.933,94.147L255.933,73.613L288.638,114.682L255.933,155.751L255.933,135.216L67.758,135.216Z" style="fill:rgb(128,128,128);"/>
                    </g>
                    <g transform="matrix(4.40534e-17,0.845256,-0.899048,6.46775e-17,342.347,-43.0103)">
                        <path d="M67.758,135.216L67.758,94.147L239.018,94.147L239.018,73.613L288.638,114.682L239.018,155.751L239.018,135.216L67.758,135.216Z" style="fill:rgb(128,128,128);"/>
                    </g>
                    <g transform="matrix(7.06107e-17,1.35481,-0.899048,6.46775e-17,416.193,-193.955)">
                        <path d="M67.758,135.216L67.758,94.147L257.681,94.147L257.681,73.613L288.638,114.682L257.681,155.751L257.681,135.216L67.758,135.216Z" style="fill:rgb(128,128,128);"/>
                    </g>
                    <g transform="matrix(4.43054e-17,0.85009,-0.899048,6.46775e-17,490.04,-92.8408)">
                        <path d="M67.758,135.216L67.758,94.147L239.3,94.147L239.3,73.613L288.638,114.682L239.3,155.751L239.3,135.216L67.758,135.216Z" style="fill:rgb(128,128,128);"/>
                    </g>
                </g>
            </g>
            <g id="Layer4" transform="matrix(1,0,0,1.13591,0,0)">
                <g transform="matrix(1.06502,0,0,4.05,-15.0345,-92.9456)">
                    <rect x="14.117" y="27.195" width="450.696" height="8.512" style="fill:rgb(166,166,166);"/>
                </g>
                <g transform="matrix(1,0,0,1,0,-10)">
                    <path d="M440,10L40,10L0,27.195L480,27.195L440,10Z" style="fill:rgb(217,217,217);"/>
                </g>
                <g transform="matrix(1,0,0,1,-0.237039,0)">
                    <circle cx="24.577" cy="34.432" r="6.469" style="fill:rgb(13,121,242);"/>
                </g>
                <g transform="matrix(1,0,0,1,30.5716,0)">
                    <circle cx="24.577" cy="34.432" r="6.469" style="fill:rgb(13,121,242);"/>
                </g>
                <g transform="matrix(1,0,0,1,61.3802,0)">
                    <circle cx="24.577" cy="34.432" r="6.469" style="fill:rgb(13,121,242);"/>
                </g>
                <g transform="matrix(1,0,0,1,122.997,0)">
                    <circle cx="24.577" cy="34.432" r="6.469" style="fill:rgb(13,121,242);"/>
                </g>
                <g transform="matrix(1,0,0,1,184.615,0)">
                    <circle cx="24.577" cy="34.432" r="6.469" style="fill:rgb(13,121,242);"/>
                </g>
                <g transform="matrix(1,0,0,1,215.423,0)">
                    <circle cx="24.577" cy="34.432" r="6.469" style="fill:rgb(13,121,242);"/>
                </g>
                <g transform="matrix(1,0,0,1,246.232,0)">
                    <circle cx="24.577" cy="34.432" r="6.469" style="fill:rgb(13,121,242);"/>
                </g>
                <g transform="matrix(1,0,0,1,277.04,0)">
                    <circle cx="24.577" cy="34.432" r="6.469" style="fill:rgb(13,121,242);"/>
                </g>
                <g transform="matrix(1,0,0,1,307.849,0)">
                    <circle cx="24.577" cy="34.432" r="6.469" style="fill:rgb(13,121,242);"/>
                </g>
                <g transform="matrix(1,0,0,1,338.658,0)">
                    <circle cx="24.577" cy="34.432" r="6.469" style="fill:rgb(13,121,242);"/>
                </g>
                <g transform="matrix(1,0,0,1,369.466,0)">
                    <circle cx="24.577" cy="34.432" r="6.469" style="fill:rgb(13,121,242);"/>
                </g>
                <g transform="matrix(1,0,0,1,400.275,0)">
                    <circle cx="24.577" cy="34.432" r="6.469" style="fill:rgb(13,121,242);"/>
                </g>
                <g transform="matrix(1,0,0,1,431.084,0)">
                    <circle cx="24.577" cy="34.432" r="6.469" style="fill:rgb(13,121,242);"/>
                </g>
                <g transform="matrix(1,0,0,1,92.1888,0)">
                    <circle cx="24.577" cy="34.432" r="6.469" style="fill:rgb(13,121,242);"/>
                </g>
                <g transform="matrix(1,0,0,1,153.806,0)">
                    <circle cx="24.577" cy="34.432" r="6.469" style="fill:rgb(13,121,242);"/>
                </g>
                <g transform="matrix(0.581808,0,0,0.581808,7.35124,-36.9393)">
                    <rect x="372.905" y="422" width="53.439" height="137.408" style="fill:rgb(193,39,45);fill-rule:nonzero;"/>
                    <path d="M400.624,541C400.624,544.866 403.744,548 407.594,548L565.902,548C569.752,548 572.872,544.866 572.872,541L572.872,422C572.872,418.134 569.752,415 565.902,415L407.594,415C403.744,415 400.624,418.134 400.624,422L400.624,541Z" style="fill:rgb(217,65,71);fill-rule:nonzero;"/>
                    <path d="M444.508,451.195C444.508,452.556 443.404,453.661 442.041,453.661C440.68,453.661 439.574,452.556 439.574,451.195C439.574,449.833 440.68,448.728 442.041,448.728C443.404,448.728 444.508,449.833 444.508,451.195" style="fill:rgb(193,39,45);fill-rule:nonzero;"/>
                    <path d="M441.803,452.273C440.981,452.273 440.27,452.104 439.662,451.816C439.94,452.876 440.895,453.661 442.041,453.661C443.297,453.661 444.321,452.721 444.477,451.508C443.768,451.982 442.879,452.273 441.803,452.273" style="fill:rgb(242,97,103);fill-rule:nonzero;"/>
                    <path d="M489.215,451.195C489.215,452.556 488.111,453.661 486.748,453.661C485.387,453.661 484.281,452.556 484.281,451.195C484.281,449.833 485.387,448.728 486.748,448.728C488.111,448.728 489.215,449.833 489.215,451.195" style="fill:rgb(193,39,45);fill-rule:nonzero;"/>
                    <path d="M486.51,452.273C485.688,452.273 484.977,452.104 484.369,451.816C484.647,452.876 485.602,453.661 486.748,453.661C488.004,453.661 489.028,452.721 489.184,451.508C488.475,451.982 487.586,452.273 486.51,452.273" style="fill:rgb(242,97,103);fill-rule:nonzero;"/>
                    <path d="M533.922,451.195C533.922,452.556 532.818,453.661 531.455,453.661C530.094,453.661 528.988,452.556 528.988,451.195C528.988,449.833 530.094,448.728 531.455,448.728C532.818,448.728 533.922,449.833 533.922,451.195" style="fill:rgb(193,39,45);fill-rule:nonzero;"/>
                    <path d="M531.217,452.273C530.395,452.273 529.684,452.104 529.076,451.816C529.354,452.876 530.309,453.661 531.455,453.661C532.711,453.661 533.735,452.721 533.891,451.508C533.182,451.982 532.293,452.273 531.217,452.273" style="fill:rgb(242,97,103);fill-rule:nonzero;"/>
                    <path d="M444.508,481.501C444.508,482.862 443.404,483.967 442.041,483.967C440.68,483.967 439.574,482.862 439.574,481.501C439.574,480.139 440.68,479.034 442.041,479.034C443.404,479.034 444.508,480.139 444.508,481.501" style="fill:rgb(193,39,45);fill-rule:nonzero;"/>
                    <path d="M441.803,482.579C440.981,482.579 440.27,482.41 439.662,482.122C439.94,483.182 440.895,483.967 442.041,483.967C443.297,483.967 444.321,483.027 444.477,481.814C443.768,482.288 442.879,482.579 441.803,482.579" style="fill:rgb(242,97,103);fill-rule:nonzero;"/>
                    <path d="M489.215,481.501C489.215,482.862 488.111,483.967 486.748,483.967C485.387,483.967 484.281,482.862 484.281,481.501C484.281,480.139 485.387,479.034 486.748,479.034C488.111,479.034 489.215,480.139 489.215,481.501" style="fill:rgb(193,39,45);fill-rule:nonzero;"/>
                    <path d="M486.51,482.579C485.688,482.579 484.977,482.41 484.369,482.122C484.647,483.182 485.602,483.967 486.748,483.967C488.004,483.967 489.028,483.027 489.184,481.814C488.475,482.288 487.586,482.579 486.51,482.579" style="fill:rgb(242,97,103);fill-rule:nonzero;"/>
                    <path d="M533.922,481.501C533.922,482.862 532.818,483.967 531.455,483.967C530.094,483.967 528.988,482.862 528.988,481.501C528.988,480.139 530.094,479.034 531.455,479.034C532.818,479.034 533.922,480.139 533.922,481.501" style="fill:rgb(193,39,45);fill-rule:nonzero;"/>
                    <path d="M531.217,482.579C530.395,482.579 529.684,482.41 529.076,482.122C529.354,483.182 530.309,483.967 531.455,483.967C532.711,483.967 533.735,483.027 533.891,481.814C533.182,482.288 532.293,482.579 531.217,482.579" style="fill:rgb(242,97,103);fill-rule:nonzero;"/>
                    <path d="M197.122,607C197.122,610.59 194.212,613.5 190.622,613.5C187.032,613.5 184.122,610.59 184.122,607L184.122,591.392C184.122,587.802 187.032,584.892 190.622,584.892C194.212,584.892 197.122,587.802 197.122,591.392L197.122,607Z" style="fill:rgb(102,102,102);fill-rule:nonzero;"/>
                    <path d="M615.622,607C615.622,610.59 612.712,613.5 609.122,613.5C605.532,613.5 602.622,610.59 602.622,607L602.622,591.392C602.622,587.802 605.532,584.892 609.122,584.892C612.712,584.892 615.622,587.802 615.622,591.392L615.622,607Z" style="fill:rgb(102,102,102);fill-rule:nonzero;"/>
                    <rect x="190.622" y="539.562" width="418.5" height="41.045" style="fill:rgb(193,39,45);fill-rule:nonzero;"/>
                    <path d="M399.127,541C399.127,544.866 396.008,548 392.158,548L233.842,548C229.992,548 226.872,544.866 226.872,541L226.872,422C226.872,418.134 229.992,415 233.842,415L392.158,415C396.008,415 399.127,418.134 399.127,422L399.127,541Z" style="fill:rgb(217,65,71);fill-rule:nonzero;"/>
                    <path d="M158.38,488.422C158.38,488.422 173.172,477.759 185.859,476.738C198.547,475.718 222.318,474.551 228.443,477.613C234.568,480.676 234.145,495.007 231.372,510.457C231.372,510.457 216.338,551.259 201.026,540.905C185.713,530.552 158.38,488.422 158.38,488.422" style="fill:rgb(255,128,133);fill-rule:nonzero;"/>
                    <path d="M641.364,488.422C641.364,488.422 626.572,477.759 613.885,476.738C601.197,475.718 577.426,474.551 571.301,477.613C565.176,480.676 565.598,495.007 568.372,510.457C568.372,510.457 583.405,551.259 598.718,540.905C614.03,530.552 641.364,488.422 641.364,488.422" style="fill:rgb(255,128,133);fill-rule:nonzero;"/>
                    <path d="M208.872,521.938C208.872,521.938 228.074,506.107 244.407,506.107C260.74,506.107 321.205,506.335 329.872,505.335C338.539,504.335 385.872,504.335 393.539,511.667C401.205,519.001 399.818,534.658 399.818,534.658C399.818,534.658 217.205,557.877 208.872,521.938" style="fill:rgb(242,97,103);fill-rule:nonzero;"/>
                    <path d="M208.872,521.938C204.306,524.949 199.872,552.668 208.872,557.334C217.872,562.002 387.205,557.334 387.205,557.334C387.205,557.334 399.872,560.001 399.872,537.334C399.872,514.668 390.539,524.43 329.539,524.43C268.539,524.43 215.538,517.543 208.872,521.938" style="fill:rgb(217,65,71);fill-rule:nonzero;"/>
                    <path d="M590.872,521.938C590.872,521.938 571.671,506.107 555.337,506.107C539.005,506.107 478.538,506.335 469.872,505.335C461.206,504.335 413.872,504.335 406.206,511.667C398.539,519.001 399.926,534.658 399.926,534.658C399.926,534.658 582.538,557.877 590.872,521.938" style="fill:rgb(242,97,103);fill-rule:nonzero;"/>
                    <path d="M637.398,487.458L618.848,487.458L604.778,487.458C600.278,487.458 596.578,490.878 596.133,495.259C596.103,495.551 596.088,495.848 596.088,496.147L596.088,560.125L399.872,560.125L203.655,560.125L203.655,510.218L203.655,496.147C203.655,495.848 203.64,495.551 203.61,495.259C203.166,490.878 199.465,487.458 194.966,487.458L180.896,487.458L162.345,487.458C157.546,487.458 153.656,491.349 153.656,496.147L153.656,510.218C153.656,515.017 157.546,518.907 162.345,518.907L172.206,518.907L172.206,584.666C172.206,588.532 175.34,591.666 179.206,591.666L620.538,591.666C624.403,591.666 627.538,588.532 627.538,584.666L627.538,582.977L627.538,567.125L627.538,518.907L637.398,518.907C642.198,518.907 646.087,515.017 646.087,510.218L646.087,496.147C646.087,491.349 642.198,487.458 637.398,487.458" style="fill:rgb(217,65,71);fill-rule:nonzero;"/>
                    <path d="M590.872,521.938C595.438,524.949 599.872,552.668 590.872,557.334C581.872,562.002 412.539,557.334 412.539,557.334C412.539,557.334 399.872,560.001 399.872,537.334C399.872,514.668 409.205,524.43 470.205,524.43C531.205,524.43 584.206,517.543 590.872,521.938" style="fill:rgb(217,65,71);fill-rule:nonzero;"/>
                    <path d="M270.76,451.195C270.76,452.556 269.656,453.661 268.293,453.661C266.931,453.661 265.826,452.556 265.826,451.195C265.826,449.833 266.931,448.728 268.293,448.728C269.656,448.728 270.76,449.833 270.76,451.195" style="fill:rgb(193,39,45);fill-rule:nonzero;"/>
                    <path d="M268.054,452.273C267.233,452.273 266.522,452.104 265.914,451.816C266.191,452.876 267.147,453.661 268.293,453.661C269.548,453.661 270.573,452.721 270.728,451.508C270.02,451.982 269.131,452.273 268.054,452.273" style="fill:rgb(242,97,103);fill-rule:nonzero;"/>
                    <path d="M315.467,451.195C315.467,452.556 314.363,453.661 313,453.661C311.638,453.661 310.533,452.556 310.533,451.195C310.533,449.833 311.638,448.728 313,448.728C314.363,448.728 315.467,449.833 315.467,451.195" style="fill:rgb(193,39,45);fill-rule:nonzero;"/>
                    <path d="M312.761,452.273C311.94,452.273 311.229,452.104 310.621,451.816C310.898,452.876 311.854,453.661 313,453.661C314.255,453.661 315.28,452.721 315.435,451.508C314.727,451.982 313.838,452.273 312.761,452.273" style="fill:rgb(242,97,103);fill-rule:nonzero;"/>
                    <path d="M360.174,451.195C360.174,452.556 359.07,453.661 357.707,453.661C356.345,453.661 355.24,452.556 355.24,451.195C355.24,449.833 356.345,448.728 357.707,448.728C359.07,448.728 360.174,449.833 360.174,451.195" style="fill:rgb(193,39,45);fill-rule:nonzero;"/>
                    <path d="M357.468,452.273C356.647,452.273 355.936,452.104 355.328,451.816C355.605,452.876 356.561,453.661 357.707,453.661C358.962,453.661 359.987,452.721 360.142,451.508C359.434,451.982 358.545,452.273 357.468,452.273" style="fill:rgb(242,97,103);fill-rule:nonzero;"/>
                    <path d="M270.76,481.501C270.76,482.862 269.656,483.967 268.293,483.967C266.931,483.967 265.826,482.862 265.826,481.501C265.826,480.139 266.931,479.034 268.293,479.034C269.656,479.034 270.76,480.139 270.76,481.501" style="fill:rgb(193,39,45);fill-rule:nonzero;"/>
                    <path d="M268.054,482.579C267.233,482.579 266.522,482.41 265.914,482.122C266.191,483.182 267.147,483.967 268.293,483.967C269.548,483.967 270.573,483.027 270.728,481.814C270.02,482.288 269.131,482.579 268.054,482.579" style="fill:rgb(242,97,103);fill-rule:nonzero;"/>
                    <path d="M315.467,481.501C315.467,482.862 314.363,483.967 313,483.967C311.638,483.967 310.533,482.862 310.533,481.501C310.533,480.139 311.638,479.034 313,479.034C314.363,479.034 315.467,480.139 315.467,481.501" style="fill:rgb(193,39,45);fill-rule:nonzero;"/>
                    <path d="M312.761,482.579C311.94,482.579 311.229,482.41 310.621,482.122C310.898,483.182 311.854,483.967 313,483.967C314.255,483.967 315.28,483.027 315.435,481.814C314.727,482.288 313.838,482.579 312.761,482.579" style="fill:rgb(242,97,103);fill-rule:nonzero;"/>
                    <path d="M360.174,481.501C360.174,482.862 359.07,483.967 357.707,483.967C356.345,483.967 355.24,482.862 355.24,481.501C355.24,480.139 356.345,479.034 357.707,479.034C359.07,479.034 360.174,480.139 360.174,481.501" style="fill:rgb(193,39,45);fill-rule:nonzero;"/>
                    <path d="M357.468,482.579C356.647,482.579 355.936,482.41 355.328,482.122C355.605,483.182 356.561,483.967 357.707,483.967C358.962,483.967 359.987,483.027 360.142,481.814C359.434,482.288 358.545,482.579 357.468,482.579" style="fill:rgb(242,97,103);fill-rule:nonzero;"/>
                </g>
            </g>
        </g>
    </g>
</svg>
