<?xml version="1.0" encoding="UTF-8" standalone="no"?><!DOCTYPE svg PUBLIC "-//W3C//DTD SVG 1.1//EN" "http://www.w3.org/Graphics/SVG/1.1/DTD/svg11.dtd"><svg width="100%" height="100%" viewBox="0 0 900 294" version="1.1" xmlns="http://www.w3.org/2000/svg" xmlns:xlink="http://www.w3.org/1999/xlink" xml:space="preserve" xmlns:serif="http://www.serif.com/" style="fill-rule:evenodd;clip-rule:evenodd;stroke-linejoin:round;stroke-miterlimit:1.41421;"><rect id="Artboard1" x="0" y="0" width="900" height="293.54" style="fill:none;"/><clipPath id="_clip1"><rect x="0" y="0" width="900" height="293.54"/></clipPath><g clip-path="url(#_clip1)"><g><g><path d="M127.107,0.23l127.106,73.386l0,146.77l-127.106,73.384l-127.107,-73.384l0,-146.77l127.107,-73.386Zm2.935,285.061l0,-61.519l53.278,30.76l-53.278,30.759Zm-5.871,-61.519l0,61.519l-53.278,-30.759l53.278,-30.76Zm-62.083,-35.843l0,61.519l-53.278,-30.759l53.278,-30.76Zm124.167,0l0,61.519l-53.278,-30.759l53.278,-30.76Zm-118.297,61.519l0,-61.519l53.276,30.76l-53.276,30.759Zm124.167,0l0,-61.519l53.278,30.76l-53.278,30.759Zm-186.25,-35.843l0,-61.521l53.276,30.759l-53.276,30.762Zm242.464,-61.521l0,61.521l-53.279,-30.762l53.279,-30.759Zm-118.297,61.521l0,-61.521l53.278,30.759l-53.278,30.762Zm-5.871,-61.521l0,61.521l-53.278,-30.762l53.278,-30.759Zm62.084,-35.844l0,61.52l-53.278,-30.76l53.278,-30.76Zm-124.167,0l0,61.52l-53.278,-30.76l53.278,-30.76Zm130.037,61.52l0,-61.52l53.278,30.76l-53.278,30.76Zm-124.167,0l0,-61.52l53.278,30.76l-53.278,30.76Zm62.084,-35.844l0,-61.519l53.278,30.76l-53.278,30.759Zm-5.871,-61.519l0,61.519l-53.278,-30.759l53.278,-30.76Zm124.168,0l0,61.519l-53.279,-30.759l53.279,-30.76Zm-242.464,61.519l0,-61.519l53.276,30.76l-53.276,30.759Zm180.38,-97.364l0,61.519l-53.278,-30.76l53.278,-30.759Zm-124.167,0l0,61.519l-53.278,-30.76l53.278,-30.759Zm130.037,61.519l0,-61.519l53.278,30.759l-53.278,30.76Zm-124.167,0l0,-61.519l53.278,30.759l-53.278,30.76Zm62.084,-35.843l0,-61.519l53.278,30.759l-53.278,30.76Zm-5.871,-61.519l0,61.519l-53.278,-30.76l53.278,-30.759Z" style="fill:#fff;"/><path d="M132.977,65.144l44.471,-25.676l-44.471,-25.676c0,17.117 0,34.235 0,51.352Z" style="fill:#fff;"/><path d="M76.763,39.468l44.473,25.676l0,-51.352c-14.824,8.559 -29.648,17.117 -44.473,25.676Z" style="fill:#fff;"/><path d="M138.847,75.311l44.473,25.676l0,-51.349c-14.824,8.558 -29.649,17.117 -44.473,25.673Z" style="fill:#fff;"/><path d="M195.06,100.987l44.471,-25.676l-44.471,-25.673c0,17.115 0,34.232 0,51.349Z" style="fill:#fff;"/><path d="M200.93,111.157l44.473,25.676l0,-51.352c-14.824,8.558 -29.648,17.117 -44.473,25.676Z" style="fill:#fff;"/><path d="M195.06,172.676l44.471,-25.676l-44.471,-25.676c0,17.117 0,34.235 0,51.352Z" style="fill:#fff;"/><path d="M200.93,182.843l44.473,25.676l0,-51.35c-14.824,8.559 -29.648,17.118 -44.473,25.674Z" style="fill:#fff;"/><path d="M195.06,244.365l44.471,-25.676l-44.471,-25.676c0,17.117 0,34.234 0,51.352Z" style="fill:#fff;"/><path d="M138.847,218.689l44.473,25.676l0,-51.352c-14.824,8.558 -29.649,17.117 -44.473,25.676Z" style="fill:#fff;"/><path d="M132.977,280.208l44.471,-25.676l-44.471,-25.676c0,17.117 0,34.235 0,51.352Z" style="fill:#fff;"/><path d="M76.763,254.532l44.473,25.676l0,-51.352c-14.824,8.559 -29.648,17.117 -44.473,25.676Z" style="fill:#fff;"/><path d="M70.893,244.365l44.471,-25.676l-44.471,-25.676c0,17.117 0,34.234 0,51.352Z" style="fill:#fff;"/><path d="M76.763,182.843l44.473,25.676l0,-51.35c-14.824,8.559 -29.648,17.118 -44.473,25.674Z" style="fill:#fff;"/><path d="M70.893,172.676l44.471,-25.676l-44.471,-25.676c0,17.117 0,34.235 0,51.352Z" style="fill:#fff;"/><path d="M76.763,111.157l44.473,25.676l0,-51.352c-14.824,8.558 -29.648,17.117 -44.473,25.676Z" style="fill:#fff;"/><path d="M70.893,100.987l44.471,-25.676l-44.471,-25.673c0,17.115 0,34.232 0,51.349Z" style="fill:#fff;"/></g><g><path d="M312.919,173.098l27.481,0c19.579,0 28.859,-10.125 28.859,-26.174c0,-15.513 -7.205,-26.022 -28.859,-26.022l-27.481,0l0,52.196Zm6.517,-5.67l0,-41.085l20.579,0c17.893,0 23.192,7.91 23.192,20.581c0,14.436 -8.754,20.504 -22.807,20.504l-20.964,0Z" style="fill:#fff;fill-rule:nonzero;"/><path d="M433.378,173.098c6.521,0 10.201,-2.375 10.201,-7.899l0,-35.401c0,-7.21 -3.602,-8.896 -10.201,-8.896l-34.326,0c-5.065,0 -10.202,1.686 -10.202,8.896l0,35.401c0,5.524 3.679,7.899 10.202,7.899l34.326,0Zm-38.012,-5.67l0,-41.085l41.698,0l0,41.085l-41.698,0Z" style="fill:#fff;fill-rule:nonzero;"/><path d="M473.139,120.902l-6.517,0l0,52.196l6.517,0l0,-41.296l23.036,35.617l2.226,0l22.499,-35.617l0,41.296l6.517,0l0,-52.196l-6.517,0l-23.421,37.227l-24.34,-37.227Z" style="fill:#fff;fill-rule:nonzero;"/><path d="M594.986,173.098c6.523,0 10.203,-2.375 10.203,-7.899l0,-35.401c0,-7.21 -3.604,-8.896 -10.203,-8.896l-34.326,0c-5.066,0 -10.203,1.686 -10.203,8.896l0,35.401c0,5.524 3.68,7.899 10.203,7.899l34.326,0Zm-38.012,-5.67l0,-41.085l41.698,0l0,41.085l-41.698,0Z" style="fill:#fff;fill-rule:nonzero;"/><path d="M646.349,126.343l0,46.755l6.517,0l0,-46.755l23.876,0l0,-5.441l-54.269,0l0,5.441l23.876,0Z" style="fill:#fff;fill-rule:nonzero;"/><path d="M736.326,150.604c7.212,0 9.743,-3.066 9.743,-7.361l0,-13.442c0,-6.371 -2.531,-8.899 -9.743,-8.899l-41.534,0l0,52.196l6.517,0l0,-22.494l13.285,0l25.649,22.494l9.587,0l-26.635,-22.494l13.131,0Zm3.302,-7.746c0,1.998 -1.074,2.536 -3.762,2.536l-34.557,0l0,-19.051l34.557,0c2.688,0 3.762,0.845 3.762,2.535l0,13.98Z" style="fill:#fff;fill-rule:nonzero;"/><path d="M813.56,173.098c6.524,0 10.203,-2.375 10.203,-7.899l0,-35.401c0,-7.21 -3.604,-8.896 -10.203,-8.896l-34.325,0c-5.066,0 -10.201,1.686 -10.201,8.896l0,35.401c0,5.524 3.679,7.899 10.201,7.899l34.325,0Zm-38.011,-5.67l0,-41.085l41.697,0l0,41.085l-41.697,0Z" style="fill:#fff;fill-rule:nonzero;"/><path d="M894.634,173.098l5.366,0l0,-52.196l-6.517,0l0,42.295l-41.311,-42.295l-5.368,0l0,52.196l6.517,0l0,-42.447l41.313,42.447Z" style="fill:#fff;fill-rule:nonzero;"/></g></g></g></svg>